<svg height="98" width="98" version="1.1" id="Layer_1" xmlns="http://www.w3.org/2000/svg" x="0" y="0" xml:space="preserve"><style>.st0,.st1{fill:#fdbd10}.st1{stroke:#7d4802;stroke-width:.4487;stroke-linecap:round;stroke-linejoin:round;stroke-miterlimit:3.9884}.st4{fill:#003263}.st5{fill-rule:evenodd;clip-rule:evenodd;fill:#fdbd10}.st6,.st7{stroke:#7d4802;stroke-width:.2393;stroke-linecap:round;stroke-linejoin:round;stroke-miterlimit:3.9884}.st6{fill-rule:evenodd;clip-rule:evenodd;fill:#fdbd10}.st7{fill:none}.st9{fill-rule:evenodd;clip-rule:evenodd;fill:#003263}.st12{fill:#cd1141}.st14{fill:#ad8156;stroke:#7d4802;stroke-width:.3191;stroke-linecap:round;stroke-linejoin:round;stroke-miterlimit:3.9884}.st14,.st15,.st16{fill-rule:evenodd;clip-rule:evenodd}.st15{fill:#fff;stroke:#8d969c;stroke-width:.3191;stroke-linecap:round;stroke-linejoin:round;stroke-miterlimit:3.9884}.st16{fill:#8d969c}.st18,.st19,.st21,.st22,.st23,.st24,.st26,.st30{fill:#008066;stroke:#005941;stroke-width:.3191;stroke-linecap:round;stroke-linejoin:round;stroke-miterlimit:3.9884}.st19,.st21,.st22,.st23,.st24,.st26,.st30{fill:none}.st21,.st22,.st23,.st24,.st26,.st30{fill:#7d4802;stroke:#252225}.st22,.st23,.st24,.st26,.st30{fill:#fff;stroke:#63686b;stroke-width:.359}.st23,.st24,.st26,.st30{fill:none;stroke:#252225;stroke-width:.2393}.st24,.st26,.st30{stroke:#63686b}.st26,.st30{fill:#fdbd10;stroke:#7d4802;stroke-width:.3689}.st30{stroke-width:.3889}.st31{fill:#231f20}</style><path class="st0" d="M49 2.8c25.6 0 46.3 20.8 46.3 46.3S74.5 95.4 48.9 95.4c-25.6 0-46.3-20.7-46.3-46.3C2.7 23.6 23.4 2.9 49 2.8z"/><path class="st1" d="M44.6 1.4c2.4.9 3 3.6 7.3 2.5-2.2-2.2-3.2-3.7-7.3-2.5z"/><path class="st1" d="M40.5 2c2.5.6 3.2 3.3 7.5 1.8-2.5-2-3.5-3.4-7.5-1.8z"/><path class="st1" d="M36.4 2.9c2.5.4 3.5 3.1 7.6 1.2-2.6-1.8-3.7-3.1-7.6-1.2z"/><path class="st1" d="M32.4 4.2c2.6.2 3.8 2.7 7.7.5-2.8-1.6-4-2.8-7.7-.5z"/><path class="st1" d="M28.5 5.8c2.6 0 4 2.4 7.7-.1-2.8-1.4-4.2-2.5-7.7.1z"/><path class="st1" d="M24.8 7.7c2.6-.3 4.2 2 7.7-.8-3-1.1-4.4-2-7.7.8z"/><path class="st1" d="M21.3 10c2.5-.5 4.4 1.7 7.6-1.5-3.1-.8-4.6-1.6-7.6 1.5z"/><path class="st1" d="M18 12.5c2.5-.7 4.5 1.3 7.4-2.1-3.1-.6-4.7-1.2-7.4 2.1z"/><path class="st1" d="M14.9 15.4c2.4-.9 4.6.9 7.2-2.8-3.1-.3-4.8-.9-7.2 2.8z"/><path class="st1" d="M12.1 18.5c2.3-1.1 4.7.5 6.9-3.4-3.1 0-4.8-.4-6.9 3.4z"/><path class="st1" d="M9.6 21.8c2.2-1.3 4.7.1 6.6-4-3.2.3-4.9 0-6.6 4z"/><path class="st1" d="M7.3 25.3c2.1-1.5 4.7-.3 6.2-4.5-3.1.5-4.7.4-6.2 4.5z"/><path class="st1" d="M5.4 29c2-1.7 4.7-.7 5.8-5.1-3 .9-4.8 1-5.8 5.1z"/><path class="st1" d="M3.8 32.9c1.8-1.8 4.5-1.1 5.3-5.5-2.9 1-4.6 1.3-5.3 5.5z"/><path class="st1" d="M2.5 36.9c1.6-2 4.4-1.5 4.8-6-2.8 1.3-4.4 1.7-4.8 6z"/><path class="st1" d="M1.7 41C3.1 38.9 6 39.1 6 34.6c-2.8 1.6-4.4 2.1-4.3 6.4z"/><path class="st1" d="M1.1 45.1c1.3-2.2 4.1-2.2 3.7-6.7-2.5 1.8-4.1 2.4-3.7 6.7z"/><path class="st1" d="M1 49.3c1-2.3 3.9-2.6 3.1-7.1-2.4 2.1-4 2.9-3.1 7.1z"/><path class="st1" d="M1.2 53.5c.9-2.4 3.6-2.9 2.5-7.3-2.3 2.2-3.7 3.1-2.5 7.3z"/><path class="st1" d="M1.7 57.6c.6-2.5 3.3-3.3 1.8-7.5-2 2.4-3.3 3.5-1.8 7.5z"/><path class="st1" d="M2.7 61.7c.4-2.6 3.1-3.6 1.2-7.6C2 56.7.7 57.8 2.7 61.7zM5.5 69.6c0-2.6 2.4-4-.1-7.7-1.4 2.8-2.4 4.2.1 7.7z"/><path class="st1" d="M7.5 73.2c-.2-2.6 2.1-4.2-.8-7.7-1.1 3.1-2.1 4.5.8 7.7z"/><path class="st1" d="M9.7 76.8c-.5-2.5 1.7-4.4-1.5-7.6-.8 3.1-1.6 4.6 1.5 7.6z"/><path class="st1" d="M12.3 80.1c-.7-2.5 1.3-4.5-2.1-7.4-.6 3.1-1.3 4.7 2.1 7.4z"/><path class="st1" d="M15.1 83.2c-.9-2.4.9-4.6-2.8-7.2-.2 3.1-.8 4.8 2.8 7.2z"/><path class="st1" d="M18.2 86c-1.1-2.3.5-4.7-3.4-6.9 0 3.1-.4 4.8 3.4 6.9z"/><path class="st1" d="M21.5 88.5c-1.3-2.2.1-4.7-4-6.6.3 3.2.1 4.9 4 6.6z"/><path class="st1" d="M25.1 90.8c-1.5-2.1-.4-4.7-4.5-6.2.5 3.1.4 4.8 4.5 6.2zM28.8 92.7c-1.7-1.9-.7-4.6-5.1-5.8.8 3 .9 4.8 5.1 5.8z"/><path class="st1" d="M32.7 94.3c-1.8-1.8-1.1-4.5-5.5-5.3 1 2.9 1.2 4.6 5.5 5.3z"/><path class="st1" d="M36.7 95.5c-1.9-1.6-1.6-4.4-6-4.9 1.3 3 1.6 4.6 6 4.9z"/><path class="st1" d="M40.8 96.4c-2.1-1.4-1.9-4.3-6.4-4.3 1.5 2.8 2 4.4 6.4 4.3z"/><path class="st1" d="M44.9 96.9c-2.3-1.2-2.3-4.1-6.7-3.7 1.7 2.6 2.4 4.2 6.7 3.7z"/><path class="st1" d="M49.1 97.1c-2.3-1-2.6-3.9-7.1-3.1 2.1 2.4 2.8 3.9 7.1 3.1z"/><path class="st1" d="M53.2 96.9c-2.4-.9-2.9-3.7-7.3-2.5 2.3 2.3 3.2 3.7 7.3 2.5z"/><path class="st1" d="M57.4 96.4c-2.5-.6-3.3-3.4-7.5-1.8 2.4 2 3.5 3.3 7.5 1.8z"/><path class="st1" d="M61.5 95.4c-2.5-.4-3.6-3.1-7.6-1.2 2.5 1.9 3.7 3.1 7.6 1.2z"/><path class="st1" d="M65.5 94.2c-2.6-.2-3.8-2.7-7.7-.5 2.7 1.5 3.9 2.7 7.7.5z"/><path class="st1" d="M69.3 92.6c-2.6 0-4-2.4-7.7.1 2.9 1.4 4.3 2.4 7.7-.1z"/><path class="st1" d="M73 90.6c-2.6.2-4.2-2.1-7.7.8 3 1.1 4.5 2.1 7.7-.8z"/><path class="st1" d="M76.5 88.3c-2.5.5-4.4-1.6-7.6 1.5 3.1.8 4.7 1.7 7.6-1.5z"/><path class="st1" d="M79.9 85.8c-2.5.7-4.5-1.3-7.4 2.1 3.1.6 4.7 1.3 7.4-2.1z"/><path class="st1" d="M82.9 83c-2.4.9-4.6-.9-7.3 2.8 3.3.2 4.9.8 7.3-2.8z"/><path class="st1" d="M85.7 79.9c-2.3 1.1-4.7-.5-6.9 3.4 3.2 0 4.8.4 6.9-3.4z"/><path class="st1" d="M88.3 76.5c-2.2 1.3-4.7-.1-6.6 4 3.2-.2 4.9 0 6.6-4z"/><path class="st1" d="M90.5 73c-2.1 1.5-4.7.4-6.2 4.5 3.1-.5 4.8-.4 6.2-4.5z"/><path class="st1" d="M92.5 69.3c-2 1.7-4.7.7-5.8 5 3-.7 4.7-.8 5.8-5z"/><path class="st1" d="M94.1 65.4c-1.8 1.8-4.5 1.2-5.4 5.6 3-1.1 4.7-1.3 5.4-5.6z"/><path class="st1" d="M95.3 61.4c-1.6 2-4.4 1.5-4.9 6 2.9-1.3 4.6-1.7 4.9-6z"/><path class="st1" d="M96.2 57.3c-1.5 2.1-4.3 1.9-4.3 6.4 2.7-1.5 4.4-2.1 4.3-6.4z"/><path class="st1" d="M96.7 53.2c-1.3 2.2-4.1 2.3-3.7 6.7 2.6-1.8 4.2-2.4 3.7-6.7z"/><path class="st1" d="M96.9 49c-1 2.3-3.9 2.6-3.1 7 2.4-2 3.9-2.7 3.1-7z"/><path class="st1" d="M96.7 44.8c-.9 2.5-3.6 3-2.5 7.3 2.2-2.2 3.7-3.1 2.5-7.3z"/><path class="st1" d="M96.1 40.7c-.6 2.5-3.3 3.3-1.8 7.5 2-2.4 3.4-3.5 1.8-7.5z"/><path class="st1" d="M95.2 36.7c-.4 2.6-3.1 3.6-1.2 7.6 1.8-2.7 3.1-3.8 1.2-7.6z"/><path class="st1" d="M93.9 32.6c-.2 2.6-2.7 3.8-.5 7.7 1.6-2.7 2.8-4 .5-7.7z"/><path class="st1" d="M92.3 28.8c0 2.6-2.4 4 .1 7.7 1.4-2.9 2.5-4.2-.1-7.7z"/><path class="st1" d="M90.4 25.1c.3 2.6-2.1 4.2.8 7.7 1.1-3 2-4.4-.8-7.7z"/><path class="st1" d="M88.1 21.5c.5 2.5-1.7 4.4 1.5 7.6.8-3 1.6-4.6-1.5-7.6z"/><path class="st1" d="M85.6 18.2c.7 2.5-1.3 4.5 2.1 7.4.6-3.1 1.2-4.7-2.1-7.4z"/><path class="st1" d="M82.7 15.2c.9 2.4-.9 4.6 2.8 7.2.3-3.2.8-4.8-2.8-7.2z"/><path class="st1" d="M79.6 12.4c1.1 2.3-.5 4.7 3.4 6.9 0-3.2.4-4.9-3.4-6.9z"/><path class="st1" d="M76.3 9.8c1.3 2.2-.1 4.7 4 6.6-.3-3.2-.1-4.9-4-6.6z"/><path class="st1" d="M72.7 7.6c1.5 2.1.4 4.7 4.5 6.2-.4-3.1-.3-4.9-4.5-6.2z"/><path class="st1" d="M69.1 5.6c1.7 2 .7 4.6 5.1 5.8-.9-3-1-4.7-5.1-5.8z"/><path class="st1" d="M65.2 4.1c1.8 1.8 1.1 4.5 5.5 5.4-1-3.1-1.3-4.8-5.5-5.4z"/><path class="st1" d="M61.2 2.8c2.1 1.6 1.6 4.4 6 4.9-1.3-2.9-1.7-4.6-6-4.9z"/><path class="st1" d="M57.1 1.9c2.1 1.5 1.9 4.3 6.4 4.3-1.6-2.8-2.1-4.3-6.4-4.3z"/><path class="st1" d="M52.9 1.4c2.3 1.2 2.3 4.1 6.8 3.7-1.8-2.6-2.5-4.2-6.8-3.7z"/><path class="st1" d="M48.8 1.2c2.3 1 2.6 3.9 7.1 3.1-2.1-2.4-2.9-3.9-7.1-3.1z"/><path d="M3.9 65.7c.2-2.6 2.7-3.8.5-7.7-1.6 2.7-2.7 4-.5 7.7z" fill="#fdbd10" stroke="#7d4802" stroke-width=".459" stroke-linecap="round" stroke-linejoin="round" stroke-miterlimit="3.988"/><path d="M49 5.4c24.2 0 43.7 19.6 43.7 43.8 0 24.2-19.6 43.7-43.8 43.7-24.2 0-43.7-19.6-43.7-43.7C5.2 25 24.8 5.4 49 5.4z" fill="none" stroke="#7d4802" stroke-width=".738" stroke-linecap="round" stroke-linejoin="round" stroke-miterlimit="3.988"/><path class="st4" d="M48.9 6.7c23.5 0 42.4 19 42.4 42.5s-19 42.4-42.5 42.4c-23.4 0-42.4-19-42.4-42.5.1-23.4 19.1-42.3 42.5-42.4z"/><path class="st0" d="M49 16.9c17.8 0 32.2 14.4 32.2 32.2S66.8 81.4 49 81.4c-17.8 0-32.2-14.4-32.2-32.2C16.7 31.4 31.2 17 49 16.9z"/><path class="st5" d="M80.4 34.9l.2-.1h.1s.1 0 .1.1l.2.1.1.1h.2l3.6-1.5c.1 0 .1 0 .2-.1v-.2-.1l.1-.1.2-.1 1.2 2.8c0 .1.1.2.1.3l.2.4-1.2.5v-.2-.2c0-.1 0-.1.1-.2.3-.2.3-.6.2-.9l-.4-.9-1.6.7.2.4c0 .1.1.1.1.2l.1.1h.2c.1 0 .2.1.2.1l.1.2-1.3.6-.1-.2v-.2l.1-.2v-.2-.2l-.2-.4-1.9.5.5 1.3c0 .1.1.2.2.3.1.1.2.1.4.1h.1c.2 0 .3.1.3.2l.1.2-1.3.5-1.4-3.7zM81.4 33.7v.4h-.2l-.4-.1c-.6-.2-1.1-.6-1.4-1.1-.2-.3-.3-.6-.3-.9 0-.3 0-.6.1-.9.1-.4.3-.7.5-1 .2-.3.5-.5.9-.7.3-.2.7-.3 1-.4.3-.1.7-.1 1 0 .3 0 .7.2.9.3.3.2.5.4.7.7.2.3.3.7.3 1v.2l.1.1c.1 0 .1.1.1.1l.1.2-1.3.9-.1-.2c-.1-.1 0-.2 0-.3.1-.2.2-.5.3-.7 0-.2 0-.4-.1-.6-.2-.4-.6-.6-1-.6-.6 0-1.1.1-1.6.4-.5.2-.9.6-1.1 1.1-.2.4-.2.8 0 1.2.1.2.3.4.5.6.3.2.6.3.9.4l.1-.1zM76.8 28.7l.2-.2s.1 0 .1-.1h.1l.1.1h.1c.1 0 .1 0 .2-.1l3.1-2.2.1-.1V25.8v-.1l.1-.1.2-.2 1.1 1.5-.2.2s-.1 0-.1.1c0 0-.1 0-.1-.1l-.1-.1-.1-.1c-.1 0-.1 0-.2.1l-3.2 2.3c-.1 0-.1.1-.1.1v.4s0 .1-.1.1l-.2.2-1-1.4zM74.5 26l.2-.2.1-.1h.1l.1.1c.1 0 .1.1.1 0 .1 0 .1 0 .2-.1l3-2.6-.3-.3c-.1-.1-.2-.2-.4-.3h-.5c-.1 0-.2 0-.3-.1l-.1-.2 1-.9.3.4c.1.1.2.2.2.3l1.9 2.2.2.2.3.3-1 .9-.1-.2-.1-.1v-.2c.1-.1.1-.3.1-.5s-.1-.3-.2-.4l-.2-.2-3 2.6-.1.1v.4s0 .1-.1.1l-.2.2-1.3-1.4h.1zM71.1 22.6l1-1 .1.1c.1.1.1.3.1.4V22.9c.1.2.2.4.3.5.2.2.4.3.7.3.3 0 .5-.1.7-.3.2-.2.2-.6-.1-1.2 0-.1-.1-.1-.1-.2-.2-.4-.4-.8-.4-1.3 0-.4.2-.7.4-.9.3-.3.6-.5 1-.5s.8.1 1 .4c.1.1.3.3.4.5 0 .1.1.2.2.3h.1l.1.1s.1 0 .1.1l.1.1-1 1-.1-.1c-.1-.1-.1-.3-.1-.4v-.1c.1-.2.1-.4 0-.6 0-.2-.1-.3-.3-.5-.1-.1-.3-.2-.5-.2s-.4.1-.5.2c-.2.2-.2.6.1 1v.1c.2.3.4.7.5 1.1.1.2.1.5 0 .7-.1.2-.2.5-.4.7-.3.4-.8.6-1.2.6-.5 0-.9-.2-1.3-.5-.2-.2-.3-.4-.4-.6-.1-.1-.1-.3-.2-.4h-.2-.1s-.1 0-.1-.1v-.1h.1zM69.9 15.2l1.5 1-.2.2c0 .1-.1.1-.2.1h-.1-.1l-.1.1-1.3 1.9c-.2.3-.3.5-.4.6-.1.1-.1.3-.1.4 0 .2 0 .4.1.6.1.2.3.4.4.5.2.1.3.2.5.2h.5c.2-.1.3-.1.4-.3.2-.2.4-.4.5-.6l1.3-1.8s.1-.1.1-.2v-.1l-.1-.1v-.1-.1l.2-.2 1.1.8-.1.2-.1.1h-.2-.1l-.1.1-1.3 1.9c-.2.3-.4.5-.7.8-.2.2-.4.3-.7.3-.3.1-.6.1-.8 0-.3-.1-.6-.2-.8-.4-.5-.3-.9-.9-.9-1.5 0-.7.2-1.3.6-1.8L70 16s.1-.1.1-.2v-.2-.1-.1l.2-.2h-.4zM64.8 17.7l.1.1.1.1c.2.1.3.1.5 0s.3-.3.4-.5l1.6-2.8v-.2c0-.1 0-.1-.1-.1l-.1-.1-.1-.1V14l.1-.2 1.6.9.1.2-.1.1h-.2-.1l-.1.1-1.2 2.2c-.1.3-.3.5-.5.7l-.4.4c-.2.1-.5.2-.7.2-.3 0-.5-.1-.7-.2-.3-.1-.5-.4-.7-.7-.1-.2-.1-.5 0-.8l.3-.3c.1-.1.3-.1.4 0l.3.3c0 .1 0 .3-.1.4 0 .1-.1.1-.1.1l-.3.3zM59 16.1l.1-.2s0-.1.1-.1h.2c.1 0 .1 0 .1-.1l.1-.1 1.2-3.6v-.2s0-.1-.1-.1l-.1-.1s0-.1-.1-.1v-.1l.1-.2 2.9 1 .3.1.4.1-.2 1.2h-.2c-.1 0-.1-.1-.2-.1 0-.1-.1-.1-.1-.2 0-.2 0-.3-.1-.5-.1-.1-.3-.2-.4-.2l-1.1-.4-.6 1.7.6.2h.2c.1 0 .1 0 .2-.1l.1-.1c.1-.1.2-.1.2-.1l.2.1-.5 1.4-.2-.1c-.1 0-.1-.1-.2-.2v-.2c0-.1-.1-.1-.1-.1-.1 0-.1-.1-.2-.1l-.6-.2-.5 1.4v.2c0 .1 0 .1.1.1l.1.1.1.1v.1l-.1.2-1.7-.5zM54.4 12.2c.1-.7.5-1.4 1-1.8.6-.4 1.3-.5 1.9-.4.7.1 1.3.5 1.6 1.1.3.6.4 1.4.3 2.1-.1.7-.5 1.4-1.1 1.8-1.1.8-2.7.5-3.5-.7 0 0 0-.1-.1-.1-.3-.5-.4-1.3-.1-2zm1 .3c-.2.6-.2 1.2 0 1.7.2.6.9 1 1.6.8.2-.1.4-.2.5-.3.4-.5.6-1 .7-1.6.2-.6.2-1.1 0-1.7-.1-.4-.5-.7-.9-.8-.4-.1-.8 0-1.1.3-.4.4-.7 1-.8 1.6zM49.1 14.6v-.3-.1l.1-.1h.1s.1 0 .1-.1v-.2l.1-4H49c-.2 0-.3 0-.4.1l-.3.3-.1.1c-.1.1-.1.2-.2.2h-.2V9.2H52.2v1.3h-.4s-.1-.1-.1-.2c-.1-.2-.2-.3-.3-.4-.1-.1-.3-.1-.5-.1h-.4l-.1 4v.2l.1.1h.1s.1 0 .1.1v.4h-1.6zM43.2 15v-.3c0-.1 0-.2.1-.2l.1-.1.1-.1v-.2l-.3-3.8v-.2l-.1-.1H43s-.1 0-.1-.1v-.2l1.5-.1 2.4 3.1v-.2-.3l-.2-2.1v-.2l-.1-.1h-.1s-.1 0-.1-.1l-.1-.1v-.2l1.5-.1v.4l-.1.1-.1.1-.1.1v.2l.4 4.6h-.5l-3.1-4v.5l.3 3c0 .1 0 .1.1.2l.1.1h.1s.1 0 .1.1c0 0 0 .1.1.1v.3l-1.6-.1h-.2zM38.9 16v-.2-.1s0-.1.1-.1l.1-.1.1-.1v-.2l-1-3.7c0-.1 0-.1-.1-.2h-.2-.1l-.1-.1-.1-.2 2.8-.7.3-.1.4-.1.3 1.3H41c-.1 0-.1-.1-.2-.1-.1-.1-.2-.2-.4-.3h-.5l-.9.2.4 1.7.5-.1.2-.1.1-.1.1-.2c0-.1.1-.2.2-.2l.2-.1.4 1.4H41c-.1 0-.2 0-.2-.1l-.1-.1s-.1-.1-.2-.1h-.2l-.5.1.5 1.8 1.3-.3c.1 0 .2-.1.3-.2.1-.1.1-.2.2-.4v-.1c0-.2.1-.3.2-.3l.2-.1.3 1.3-3.9 1zM32.9 18.4l-.1-.2v-.1s0-.1.1-.1l.1-.1.1-.1v-.2L31.6 14c0-.1-.1-.1-.1-.2h-.2-.1l-.1-.1-.1-.2 1.6-.7 2.5 2.8-.2-3.9 1.5-.6.1.2v.1s0 .1-.1.1l-.1.1-.1.1v.2l1.5 3.5c0 .1.1.1.1.1H38.1l.1.1.1.2-1.6.7-.1-.2v-.1s0-.1.1-.1l.1-.1.1-.1v-.1l-1.3-3c0-.1-.1-.2-.1-.3l-.1-.4v.8l.3 4.2-.3.1-2.9-3.3-.2-.3-.3.1.2.3.1.2 1.3 3.1c0 .1.1.1.1.2H34l.1.1.1.2-1.3.6zM30.2 20.1l-.2-.3v-.1-.1l.1-.1.1-.1c0-.1 0-.1-.1-.2L28 15.8l-.4.2c-.1.1-.3.2-.3.3-.1.1-.1.2-.1.4v.1c0 .1 0 .2-.1.3l-.2.1-.7-1.1.4-.2.3-.2 2.5-1.5.3-.2.4-.3.7 1.1-.3.2-.1.1c-.1 0-.1 0-.2-.1s-.3-.2-.4-.2c-.2 0-.3.1-.5.2l-.4.2 2.1 3.4c0 .1.1.1.1.1h.5l.1.1.1.2-1.6 1.1zM25.8 23.4l-.2-.2-.1-.1V23l.1-.1v-.1s0-.1-.1-.1L23 19.9l-.1-.1h-.2-.1s-.1 0-.1-.1l-.2-.2 1.5-1.4c.4-.4.9-.7 1.4-.7.4 0 .9.1 1.1.5.3.2.4.6.4.9 0 .4-.2.7-.5.9.3-.1.6-.1.8 0h.1l1.1.3.3.1h.5s.1 0 .1.1l.2.2-.9.9-1.5-.4c-.4-.1-.7-.2-1.1-.2-.2 0-.3 0-.4.1l1 1.2.1.1h.4s.1 0 .1.1l.2.2-1.4 1zm-.8-3.2l.2-.2c.3-.2.5-.5.6-.8 0-.3 0-.5-.2-.7-.2-.2-.4-.3-.7-.3-.3 0-.6.2-.8.4l-.3.2c-.1.1 1.2 1.4 1.2 1.4zM21.9 27.2l-.2-.2s0-.1-.1-.1v-.1l.1-.2v-.3c0-.1-.1-.3-.1-.4l-1.4-3.3-.4-.2v-.2-.4-.1h.1l4.7 1.7H25.2l.2.2-1.3 1.4-.2-.2s0-.1-.1-.1V24.4v-.1-.1l-.1-.1h-.1l-.4-.3-1.4 1.4.2.5v.2h.5l.2.2-1 1 .2.1zm-.2-2.5l1-1L21 23l.7 1.7zM20.4 29.8l-.2-.1-.1-.1v-.2-.1c0-.1-.1-.1-.1-.1l-3.2-2s-.1-.1-.2-.1c0 0-.1 0-.1.1l-.1.1h-.1-.1l-.2-.1 1.1-1.7c.3-.4.7-.8 1.1-1 .4-.2.9-.1 1.2.2.4.2.6.6.7 1 0 .5-.2 1-.5 1.5l-.4.5 1.4.9s.1.1.2.1.1 0 .1-.1l.1-.1s.1 0 .1-.1h.1l.2.1-1 1.3zM18.7 27l.2-.2c.2-.3.3-.6.3-.9 0-.3-.2-.5-.4-.6-.2-.2-.5-.2-.8-.1-.3.1-.5.4-.7.6l-.2.2 1.6 1zM17.9 34l-.2-.1-.1-.1v-.2-.1l-.1-.1-3.3-1.9s-.1-.1-.2-.1-.1 0-.1.1l-.1.1h-.1-.1l-.2-.1 1.5-2.5c.1-.1.1-.2.2-.3.1-.1.1-.3.2-.4l1.1.6-.1.2c-.3-.2-.3-.1-.3-.1h-.7c-.1.1-.3.2-.3.4l-.5.9 1.5.9.2-.4c0-.1.1-.1.1-.2v-.2l-.1-.2V30l.1-.2 1.3.7-.1.2c-.1.1-.1.1-.2.1h-.2c-.1 0-.1 0-.2.1 0 0-.1.1-.1.2l-.2.4 1.6.9.7-1.2c.1-.1.1-.2.1-.4 0-.1-.1-.3-.1-.4h-.2c-.1-.2-.1-.3-.1-.4l.1-.2 1.2.7-2 3.5zM15.9 38.8l-.2-.1s-.1 0-.1-.1v-.2-.1s-.1-.1-.2-.1l-3.5-1.4h-.2c-.1 0-.1 0-.1.1l-.1.1-.1.1h-.1l-.3-.2.6-1.5c.1-.4.3-.7.5-1 .1-.2.3-.4.5-.6.4-.3.8-.5 1.2-.5.5-.1 1 0 1.4.2.4.2.7.4 1 .7.5.5.7 1.3.6 2-.1.4-.2.8-.4 1.2l-.5 1.4zm0-1.5l.1-.3c.2-.5.3-1.1.1-1.6-.3-.5-.8-.9-1.3-1-.5-.2-1.1-.3-1.6-.1-.5.2-.9.6-1 1l-.2.2v.1l3.9 1.7zM59.1 87.8l-.1-.2v-.1s0-.1.1-.1l.1-.1.1-.1V87l-1.1-3.6c0-.1 0-.1-.1-.2h-.2-.1c-.1-.1-.1-.2-.1-.2v-.2l2.8-.9.3-.1.4-.2.4 1.2-.2.1h-.2c-.1 0-.1-.1-.2-.1-.1-.1-.2-.2-.4-.3h-.5l-.9.3.5 1.8.4-.1c.1 0 .1 0 .2-.1l.1-.1V84c0-.1.1-.2.2-.2l.2-.1.4 1.4-.2.1c-.1 0-.2 0-.2-.1l-.2-.1s-.1 0-.2-.1h-.2l-.4.1.6 1.8 1.4-.4c.1 0 .2-.1.3-.2.1-.1.1-.2.2-.4v-.1c0-.2.1-.3.2-.3l.2-.1.4 1.3-4 1.2zM57.6 86.8l.3.2V87.3c-.1.1-.1.2-.2.3-.2.2-.4.4-.7.6-.3.1-.5.3-.8.3-.3.1-.6.1-.9 0-.3-.1-.6-.2-.8-.3-.3-.2-.6-.5-.8-.8-.2-.3-.3-.7-.4-1-.1-.3-.1-.7 0-1 0-.4.2-.7.3-1 .2-.3.4-.6.6-.8.2-.2.5-.3.9-.4.4-.1.8 0 1.1.1h.2l.1-.1c.1 0 .1-.1.2-.1h.2l.3 1.4H57c-.1 0-.2 0-.3-.2 0 0 0-.1-.1-.1-.2-.2-.4-.4-.6-.5-.2-.1-.4-.1-.6-.1-.4.1-.8.4-.9.8-.2.5-.2 1.1-.1 1.6s.3 1 .7 1.4c.3.3.7.4 1.2.4.3-.1.5-.2.7-.3.2-.2.4-.5.6-.7zM50.8 89v-.3-.1l.1-.1h.1l.1-.1v-.2l-.3-3.9v-.2l-.1-.1h-.1s-.1 0-.1-.1v-.4l1.9-.1v.4l-.1.1h-.1l-.1.1v.2l.3 3.8v.2l.1.1h.1s.1 0 .1.1v.4l-1.9.2zM46.3 89v-.3-.1l.1-.1h.1c.1 0 .1 0 .1-.1v-.2l.2-4h-.5c-.2 0-.3 0-.4.1l-.3.3-.1.1c0 .1-.1.2-.3.2H45l.1-1.3h.8l2.9.1h.8V85h-.2-.1s-.1-.1-.1-.2c0-.2-.1-.3-.3-.4-.1-.1-.3-.1-.5-.1h-.5l-.2 4v.2l.1.1.1.1s.1 0 .1.1v.4l-1.9-.2h.2zM40.7 88.2l.3-1.5h.2c.1 0 .2.1.3.3.1.2 0 .1.1.1.1.2.2.4.4.6.2.1.3.2.6.3.3.1.5 0 .8-.1.2-.1.4-.4.4-.6.1-.3-.2-.6-.8-1l-.2-.1c-.4-.2-.8-.5-1-.9-.2-.3-.2-.7-.1-1 .1-.4.3-.8.6-1 .3-.2.8-.3 1.1-.2.2 0 .4.1.6.2.1.1.2.1.3.2h.5l-.3 1.4h-.2c-.1 0-.2-.1-.2-.3v-.1c0-.2-.1-.4-.3-.5-.1-.1-.3-.2-.5-.2s-.4 0-.6.1c-.2.1-.3.2-.3.4 0 .3.2.6.7.9h.1c.4.2.7.4 1 .7.2.2.3.4.3.7.1.3.1.5 0 .8-.1.5-.3.9-.7 1.1-.4.3-.9.3-1.3.2-.2-.1-.5-.1-.7-.3-.1-.1-.2-.2-.4-.2h-.1-.2-.4zM36.4 81.6l1.7.5-.1.2s0 .1-.1.1h-.2-.1s-.1.1-.1.2l-.7 2.2c-.1.2-.1.5-.2.7v.4c0 .2.1.4.3.5.3.3.7.4 1.1.4.2 0 .4-.1.5-.2.1-.1.3-.2.3-.4.1-.2.2-.5.3-.8l.6-2v-.2c0-.1 0-.1-.1-.1l-.1-.1-.1-.1v-.1l.1-.2 1.3.4.2.2v.1H40.7s-.1.1-.1.2l-.6 2.3c-.1.3-.2.7-.4.9-.3.4-.8.7-1.3.8-.3 0-.6 0-.9-.1-.6-.1-1.1-.5-1.3-1-.2-.6-.2-1.3 0-1.9l.6-2.1v-.2s0-.1-.1-.1l-.1-.1-.1-.1V81.6zM31.6 84.6l.1.1.1.1c.2.1.3.1.5 0s.3-.3.4-.5l1.4-2.9v-.2c0-.1 0-.1-.1-.1v-.2l-.1-.1v-.1l.1-.2 1.6.8-.1.2s0 .1-.1.1h-.2-.1s-.1.1-.1.2L33.9 84c-.1.3-.3.5-.4.8-.1.2-.2.3-.4.4-.2.1-.5.2-.7.2-.3 0-.5 0-.8-.2-.3-.1-.6-.3-.7-.6-.1-.2-.1-.5 0-.8l.3-.3c.1-.1.3-.1.4 0 .3.1.4.4.3.6v.1c0 .1-.1.1-.1.2-.1 0-.1.1-.2.1v.1zM25.2 81.2l.2-.2.1-.1H25.8c.1 0 .1-.1.1-.1l2.2-3.1c0-.1.1-.1.1-.2v-.1l-.1-.1v-.1s0-.1.1-.1l.2-.2 2.5 1.8.3.2.4.2-.8 1-.1-.1c-.1 0-.1-.1-.1-.1v-.2-.5c-.1-.1-.2-.3-.3-.4l-1-.6-1 1.4.5.4c.1 0 .1.1.2.1h.2l.2-.1h.2l.2.1-.8 1.1-.2-.1c-.1 0-.1-.1-.1-.2v-.2c0-.1 0-.1-.1-.2 0-.1-.1-.1-.1-.1l-.7-.4-1 1.3s-.1.1-.1.2 0 .1.1.1l.1.1v.2l-.2.2-1.5-.9zM22.4 75.1c.5-.5 1.2-.9 1.9-.9s1.4.2 1.8.7c.5.5.8 1.1.8 1.8s-.4 1.4-.9 1.9-1.2.9-1.9 1c-.7.1-1.4-.2-1.9-.7-.5-.5-.8-1.1-.8-1.8.1-.8.5-1.5 1-2zm.8.8c-.4.4-.7.9-.9 1.5-.1.4 0 .8.4 1.1.3.3.7.4 1.1.3.5-.2 1-.5 1.4-1 .4-.4.7-.9.9-1.4.1-.7-.3-1.3-1-1.5h-.5c-.5.2-1 .5-1.4 1zM16.2 71.9l.2-.2h.2l.1.1h.1c.1 0 .1 0 .2-.1l3.1-2.2.1-.1v-.2-.1s0-.1.1-.1l.2-.2 1.7 2.4c.1.1.1.1.2.3l.3.3-1 .8-.1-.2s-.1-.1-.1-.2 0-.1.1-.2.1-.3.1-.4c0-.2-.1-.3-.2-.5l-.5-.8-1.4 1 .3.4c0 .1.1.1.1.1s.1.1.2.1h.2c.1 0 .2 0 .2.1l.1.2-1.2.8-.1-.2v-.5-.2c0-.1 0-.1-.1-.2l-.3-.3-1.5 1.1.8 1.1c.1.1.2.2.3.2h.5c.2 0 .3 0 .4.1l.1.2-1.1.8-2.3-3.2zM16.6 70.1l-.1.3H16.2l-.4-.1c-.9-.3-1.5-1-1.7-2 0-.3 0-.6.1-.9.1-.4.3-.7.5-1 .2-.3.5-.5.9-.7.3-.2.7-.3 1-.4.3-.1.7-.1 1 0 .3 0 .7.2.9.3.3.2.5.4.7.7.2.3.3.7.3 1v.2h.1l.1.1.1.2-1.2.7-.1-.2c-.1-.1 0-.2.1-.3l.1-.1c.1-.2.2-.5.3-.7 0-.2 0-.4-.1-.6-.2-.4-.6-.6-1-.6-.6 0-1.1.1-1.6.4-.5.2-.9.6-1.1 1.1-.2.4-.2.8 0 1.2.1.2.3.4.5.6.3.2.6.3.9.4v.4zM12.2 64.5l.2-.1h.1s.1 0 .1.1l.1.1.1.1h.2l3.5-1.5c.1 0 .1-.1.1-.1v-.2-.1l.1-.1.2-.1.8 1.7-.2.1h-.1s-.1 0-.1-.1l-.1-.1-.1-.1h-.2l-3.5 1.5c-.1 0-.1.1-.1.1v.4l-.1.1-.2.1c-.1 0-.8-1.8-.8-1.8zM10.5 59.9l.2-.1h.1s.1 0 .1.1l.1.1c0 .1.1.1.1.1h.2l3.6-1.2c.1 0 .1 0 .2-.1v-.2-.1l.1-.1.2-.1 1 2.9.1.3c0 .1.1.2.2.4l-1.2.4-.1-.2v-.2c0-.1.1-.1.1-.2.1-.1.2-.2.3-.4v-.5l-.4-1.1-1.7.6.2.6c0 .1.1.1.1.2l.1.1.2.1c.1 0 .2.1.2.1l.1.2-1.4.5-.1-.2c0-.1 0-.2.1-.2l.1-.1v-.2-.2l-.2-.6-1.6.6c-.1 0-.1 0-.2.1v.4l-.1.1-.2.1-.5-2zM9.4 54.9h.4s.1 0 .1.1l.1.1c0 .1.1.1.1.1h.2l3.7-.7c.1 0 .1 0 .2-.1l.1-.1v-.1s0-.1.1-.1h.1l.3-.1.5 3c0 .1 0 .2.1.4l.1.4-1.3.2v-.2l.1-.1c.1-.1.3-.2.3-.4v-.5l-.2-1.2-1.7.3.1.6c0 .1 0 .1.1.2l.1.1.1.1c.1 0 .2.1.2.2v.2l-1.3.2v-.2c0-.1 0-.1.1-.2l.1-.1s.1-.1.1-.2v-.2l-.1-.6-1.6.3c-.1 0-.1 0-.2.1l-.1.1v.1s0 .1-.1.1l-.1.1h-.3l-.4-1.9zM11.8 48.6c.7 0 1.5.2 2 .7 1 .9 1.1 2.5.1 3.6l-.1.1c-.5.5-1.3.8-2 .7-.7.1-1.5-.2-2-.7-1-.9-1-2.5-.1-3.5l.1-.1c.6-.6 1.3-.8 2-.8zm0 1.1c-.6 0-1.2.1-1.7.4-.6.4-.7 1.2-.3 1.7.1.1.2.3.3.3.5.3 1.1.4 1.7.3.6 0 1.2-.1 1.7-.4.6-.4.7-1.1.4-1.7-.1-.1-.2-.3-.4-.4-.6-.2-1.2-.3-1.7-.2zM87.5 59.6h-.3s-.1 0-.1-.1v-.2s0-.1-.1-.1c0 0-.1-.1-.2-.1l-3.7-.7H83s-.1 0-.1.1l-.1.1-.1.1h-.4l.3-1.7 3.7-.6-3.3-1.9.3-1.6h.3l.1.1s0 .1.1.1v.1s0 .1.1.1.1.1.2.1l3.7.7h.2l.1-.1v-.1l.1-.1h.4l-.3 1.8H88s-.1 0-.1-.1l-.1-.1v-.1s0-.1-.1-.1c0 0-.1-.1-.2-.1l-3.2-.6-.3-.2-.4-.1c.1 0 .2.1.3.2l.4.2 3.7 2.1v.3l-4.3.7h-.5.5l3.3.6h.2l.1-.1.1-.1.1-.1h.4l-.3 1.5-.1.1zM82.4 70.6c-.1.4-.3.8-.5 1.2-.2.3-.3.6-.6.9-.2.3-.5.5-.8.7-.3.2-.6.3-.9.3-.4.1-.8 0-1.2-.1-.4-.1-.8-.3-1.1-.6-.3-.2-.5-.5-.7-.8-.2-.3-.3-.7-.4-1-.1-.3-.1-.7 0-1 .1-.3.2-.6.5-.9.2-.2.4-.4.7-.5l.4-.2v-.1-.1-.1l.1-.1 1 .9-.1.2c-.1.1-.2.1-.3.1-.3-.1-.6-.1-.9 0-.2.1-.4.2-.6.4-.3.3-.4.8-.2 1.2.2.5.6 1 1 1.3.4.4 1 .6 1.6.7.5 0 .9-.2 1.2-.5.2-.2.3-.4.3-.7 0-.2-.1-.4-.3-.6l-.1-.2s-.1-.1-.2-.1h-.2l-.1.1h-.1s-.1 0-.1-.1l-.2-.2 1-1.2.3.3.2.2c.1.1.3.2.4.3h.3l.1-.1h.2l.2.2.1.2zM73.5 77.2c-.6-.5-.9-1.1-1-1.9-.1-1.4 1-2.6 2.4-2.6h.1c1.5.1 2.7 1.3 2.9 2.7.1 1.4-1 2.6-2.3 2.6h-.1c-.8 0-1.5-.3-2-.8zm.8-.9c.4.4.9.7 1.5.9.7.1 1.3-.3 1.4-1v-.5c-.5-1.1-1.4-1.9-2.5-2.3-.4-.1-.8.1-1.1.4-.3.3-.4.7-.3 1.1.2.6.5 1.1 1 1.4zM71.1 82.4l-.2-.2v-.1-.1l.1-.1v-.1c0-.1 0-.1-.1-.2l-2.3-3.1c0-.1-.1-.1-.1-.1h-.1-.1l-.1-.1-.2-.2 1.6-1.2c.4-.4.9-.6 1.5-.6.4 0 .8.2 1 .6.2.3.3.6.3 1-.1.4-.3.7-.6.9.3 0 .6 0 .8.1h.1l1 .4c.1 0 .2.1.3.1h.5s.1 0 .1.1l.2.2-1 .8-1.4-.6c-.3-.2-.7-.3-1-.4-.2 0-.3 0-.4.1l1 1.3c0 .1.1.1.1.1h.4s.1 0 .1.1l.2.2-1.7 1.1zm-.6-3.3l.3-.2c.3-.2.5-.4.6-.7.1-.3 0-.5-.2-.7-.1-.2-.4-.4-.7-.4-.3 0-.6.1-.9.4l-.3.2c.1 0 1.2 1.4 1.2 1.4zM66.7 85l-.1-.2v-.1-.1l.1-.1.1-.1c0-.1 0-.1-.1-.2l-2-3.3c0-.1-.1-.1-.1-.1h-.2-.1l-.1-.1-.1-.2 1.8-1c.4-.3 1-.5 1.5-.5.4 0 .8.3 1 .7.2.4.3.8.1 1.2-.2.4-.6.8-1 1l-.6.3.8 1.4c0 .1.1.1.1.1H68.1l.1.1.1.2-1.6 1zm-.2-3.3l.2-.2c.3-.1.5-.4.7-.7.1-.2.1-.5-.1-.7-.1-.2-.3-.4-.6-.5-.3 0-.6.1-.9.3l-.3.2 1 1.6zM88.9 52.2h-1.5V52c0-.1.1-.2.3-.4l.1-.1c.2-.1.4-.3.5-.5.1-.2.2-.4.2-.6 0-.3-.1-.5-.3-.7-.2-.2-.4-.3-.7-.3-.3 0-.6.3-.8.9 0 .1-.1.2-.1.2-.1.4-.4.8-.7 1.2-.3.2-.7.4-1 .3-.4 0-.8-.2-1-.4-.3-.3-.4-.7-.4-1 0-.2 0-.4.1-.6 0-.1.1-.2.1-.3v-.2-.4h1.4v.2c0 .1-.1.2-.3.3h-.1c-.2.1-.4.2-.5.4-.1.1-.2.3-.2.5s0 .4.2.6c.1.1.3.2.5.2.3 0 .5-.3.7-.8v-.1c.1-.4.3-.7.5-1 .1-.2.3-.4.6-.5.2-.1.5-.1.8-.1.5 0 .9.2 1.3.5.3.3.5.8.5 1.3 0 .2-.1.5-.2.7-.1.1-.1.3-.2.4v.1l.1.1s0 .1.1.1v.2zM85.7 65.2l-.3-.1h-.1V64.8c0-.1 0-.2-.1-.2l-.3-.3-2.7-2.4-.5.1h-.1s-.1-.1-.1-.2 0-.1-.1-.2v-.2c0-.1-.1-.1-.1-.2s-.1-.1-.1-.1l.1-.1 5-.5h.2s.1 0 .1-.1l.1-.1c.1-.1.1-.1.2-.1l.3.1-.6 1.8-.3-.1s-.1 0-.1-.1V61.6v-.1h-.7l-.5 2 .4.3.1.1H85.8l.1-.1c.1-.1.1-.1.2-.1l.3.1-.5 1.4h-.2zm-1.3-2.1l.5-1.4-1.9.2c-.1-.1 1.4 1.2 1.4 1.2zM83.1 69.9l-.2-.1-.1-.1v-.2-.2l-.1-.1-3.3-1.8s-.1-.1-.2-.1h-.1l-.1.1h-.1-.1l-.2-.1 1-1.8c.2-.5.6-.9 1-1.2.4-.2.9-.1 1.2.1.3.2.5.4.7.8.1.4 0 .7-.1 1 .1-.2.4-.2.6-.2h.1l1.1-.1h.3c.1 0 .1 0 .2-.1l.1-.1h.2l.2.1-.5 1.2h-1.5c-.4 0-.8 0-1.1.1-.2 0-.3.1-.4.3l1.4.8s.1 0 .2.1c.1 0 .1 0 .1-.1l.1-.1h.2l.2.1-.8 1.7zm-1.9-2.7l.2-.3c.2-.3.3-.6.3-.9 0-.3-.2-.5-.4-.6-.2-.1-.5-.2-.8-.1-.3.1-.5.4-.6.7l-.2.3c-.1 0 1.5.9 1.5.9z"/><path class="st6" d="M11.5 44.1l-2 .1 1.5-1.5-.8-2 1.9 1.1 1.8-1.5-.5 2.3 1.7 1.1-2 .3-.7 2.1-.9-2z"/><path class="st6" d="M13.9 40.4l-.5 2.1-1.1.6 1.6-2.7z"/><path class="st6" d="M15.3 43.7l-2.2.2-.9-.9 3.1.7zM12.2 43.1v-1.2l-2-1.1 2 2.3zM12.2 43.1l-.6 1-2.1.1 2.7-1.1z"/><path class="st6" d="M12.2 43.1l.2 2.9.7-2.1-.9-.8z"/><path class="st7" d="M10.9 42.8l1.4.3"/><path class="st6" d="M86.5 44.1l2.1.1-1.6-1.5.9-2-2 1.1-1.8-1.5.5 2.3-1.7 1.1 2 .3.7 2.1.9-2z"/><path class="st6" d="M84.1 40.4l.5 2.1 1.2.6-1.7-2.7z"/><path class="st6" d="M82.7 43.7l2.2.2.9-.9-3.1.7z"/><path class="st6" d="M85.8 43.1v-1.2l2-1.1-2 2.3zM85.8 43.1l.6 1 2.1.1-2.7-1.1z"/><path class="st6" d="M85.8 43.1l-.2 2.9-.6-2.1.8-.8z"/><path class="st7" d="M87.1 42.8l-1.4.3"/><path class="st6" d="M82.7 43.7l2.2.2.9-.9-3.1.7zM85.8 43.1l.6 1 2.1.1-2.7-1.1z"/><path d="M49 18.5c17 0 30.8 13.8 30.8 30.8S66 80.1 49 80.1 18.2 66.3 18.2 49.3c0 0 0 0 0 0 0-17 13.8-30.7 30.8-30.8z" fill="#ffe6be" stroke="#7d4802" stroke-width=".319" stroke-linecap="round" stroke-linejoin="round" stroke-miterlimit="3.988"/><path class="st9" d="M65.6 70.2l.4 1 .6-.5-1-.5zm.3 1.8l-.8-2.4.2-.2 2.5 1.3h.2c.1 0 .1-.1.2-.1l.1.2-1.1.9-.1-.2.1-.1c.1-.1.1-.1.1-.2l-.1-.1-.5-.3-.7.7c0 .1.1.3.2.4.1.1.3.1.5-.1l.1.2-.9.8-.1-.2c.1-.2.2-.4.1-.6zM64.5 73.2l-1.3-1.7-.1-.1c-.1 0-.2 0-.2.1l-.1.1-.1-.2 1.3-.9.1.2-.1.1-.1.1v.2l1.3 1.8.1.1c.1 0 .2-.1.2-.1l.1-.1.1.2-1.3.9-.1-.2.1-.1c.1 0 .1-.1.2-.2-.1-.1-.1-.1-.1-.2zM61 72.7c0-.1-.1-.1-.2 0s-.2.2-.2.3v.4c0 .1 0 .3.1.4l-.2.1-.5-1 2.4-1.2.6 1-.2.1-.3-.3c-.1-.1-.2-.2-.4-.2-.1-.1-.3-.1-.4 0-.1 0-.1.1-.1.2l1 2.1.1.1c.1 0 .2-.1.3-.1l.1-.1.1.2-1.5.8-.2-.2c.1 0 .2-.1.3-.1l.1-.1V75l-.9-2.3zM59.5 75.9l-.8-2c0-.1-.1-.1-.1-.1h-.2l-.1.1-.1-.2 1.5-.6.1.2-.2.1s-.1 0-.1.1c0 0-.1 0-.1.1v.1l.8 2c0 .1.1.1.1.1h.2l.1-.1.1.2-1.5.6-.1-.2h.1c.1 0 .1-.1.2-.1.1-.2.1-.2.1-.3zM56.1 74.6c0-.1-.1-.1-.2-.1s-.2.1-.3.2c-.1.1-.1.3-.1.4v.4h-.2l-.2-1 2.6-.7.4 1-.2.1c-.1-.1-.1-.3-.2-.4l-.3-.3c-.1-.1-.3-.1-.4 0-.1 0-.1.1-.1.2l.6 2.2.1.1h.4v.2l-1.6.5-.1-.2.3-.1s.1 0 .1-.1v-.1l-.6-2.1v-.2zM52.5 75.9c0-.2 0-.3.1-.5.1-.1.2-.3.3-.4.1-.1.3-.2.5-.2.3-.1.5 0 .8.1l.2-.2h.2l.3 1h-.2c-.1-.2-.2-.3-.4-.4-.1-.1-.3-.2-.4-.2h-.4c-.1 0-.3.1-.4.2-.1.1-.1.2-.1.3 0 .1.1.2.2.3.2.1.3.1.5.1h.7c.2 0 .4.1.5.2.2.1.3.3.3.6v.1c0 .2 0 .3-.1.4-.1.1-.2.3-.3.4-.1.1-.3.2-.5.2-.3 0-.6 0-.8-.1l-.3.2H53l-.2-1.1h.2c.2.3.4.5.6.6.2.1.4.2.7.1.1 0 .3-.1.4-.2.1-.1.1-.2.1-.4v-.1c0-.1-.2-.2-.4-.2h-.7c-.2 0-.4-.1-.6-.2-.3-.1-.4-.3-.6-.6zM49.3 77.2l-.1-1.6v-.1h-.4v-.2l1.6-.1v.2H50V77.1c0 .1 0 .3.1.4.1.1.1.2.2.2.1.1.3.1.5.1s.4-.1.5-.2c.1-.2.2-.4.2-.6v-1.3-.3c0-.1-.1-.1-.1-.1h-.3v-.2h1.2v.2c-.1 0-.2.1-.3.1-.1.1-.1.3-.1.4v1.3c0 .2 0 .4-.1.5-.1.2-.2.3-.4.4-.2.1-.4.1-.6.1-.2 0-.5 0-.7-.1-.2 0-.3-.2-.5-.3-.1-.2-.2-.4-.2-.6l-.1.1zM47.3 75.5v-.1h-.4v-.2l1.6.1v.2h-.3s-.1 0-.1.1v.1l-.1 1.5c0 .3-.1.6-.3.8-.3.2-.7.3-1 .3-.2 0-.3 0-.4-.1l-.3-.3c-.1-.1-.1-.2-.1-.3v-.1c0-.2 0-.3.1-.4.1-.1.2-.2.3-.2.1 0 .3 0 .3.1.1.1.1.2.1.3v.2c0 .1-.1.1-.1.1h-.4c-.1 0-.1 0-.1.1s.1.2.2.2c.1.1.2.1.3.1h.2c.1 0 .3-.1.4-.2.1-.2.1-.4.1-.6v-1.7zM41.7 76.7l1.4-2.1.3.1.5 2.8c0 .1 0 .1.1.2.1 0 .1.1.2.1v.2l-1.4-.3v-.2h.4v-.1l-.1-.5-1-.2c-.1.1-.2.2-.2.4s.1.3.4.3v.2l-1.2-.2V77c.2 0 .4-.1.6-.3zm1.1-1.3l-.6.9.8.2-.2-1.1zM39 73.7c0-.2-.2-.3-.3-.4l.1-.2 1 .3.9 2.3.4-1.2c.1-.1.1-.3 0-.4-.1-.1-.2-.2-.3-.2l.1-.2 1.1.4-.1.2h-.3c-.1 0-.1.1-.2.1-.1.1-.1.2-.1.2l-.8 2.1-.2-.1-1-2.8-.5 1.5c-.1.1-.1.3 0 .4.1.1.2.2.3.2l-.1.2-1.1-.4.1-.2c.1 0 .2 0 .2.1.1 0 .1 0 .2-.1s.1-.1.1-.2l.5-1.6zM36.3 74.8l1-1.9v-.2c-.1-.1-.1-.1-.2-.1l-.1-.1.1-.2 1.4.7-.1.2-.1-.1-.1-.1h-.1s-.1 0-.1.1L37 75v.1c.1.1.1.1.2.1l.1.1-.1.2-1.5-.5.1-.2.1.1c.1 0 .1.1.2.1l.2-.2zM32.4 72l1-1.5v-.1s0-.1-.1-.1l-.2-.2.1-.2 1.1.7-.5 1.8 1.5-1.2 1.1.8-.1.2-.1-.1c-.1 0-.1-.1-.2-.1 0 0-.1 0-.1.1l-1.2 1.8v.1c0 .1.1.1.1.1l.2.1-.1.2-1.3-.9.1-.2s.1 0 .1.1c.1 0 .1.1.2.1 0 0 .1 0 .1-.1l1.3-1.9-2.3 1.7H33l.7-2.7-1 1.6c-.1.1-.1.2-.1.4 0 .1.1.2.2.3l-.2.2-1-.7.1-.2c.1.1.2.1.2.1.1 0 .1 0 .2-.1.2 0 .2-.1.3-.1zM31.9 68.8c.2.2.3.3.4.6.2.4.2.8 0 1.2-.1.2-.2.4-.3.5-.1.1-.3.2-.4.3-.2.1-.4.1-.6.2-.2 0-.4 0-.6-.1-.2-.1-.4-.2-.6-.4-.2-.2-.3-.3-.4-.6-.2-.4-.2-.8 0-1.2.1-.2.2-.3.3-.5.1-.2.3-.3.5-.4.2-.1.4-.1.6-.1.2 0 .4 0 .6.1.2.1.3.2.5.4zm-.1.2c-.1-.1-.3-.2-.4-.2-.2 0-.3.1-.5.2s-.4.3-.6.5c-.2.2-.3.4-.4.6-.1.2-.1.3-.2.5 0 .2.1.3.2.4.1.1.2.1.3.2.1 0 .2 0 .4-.1.1-.1.3-.1.4-.2.1-.1.2-.2.4-.3.3-.2.5-.5.6-.9 0-.3 0-.6-.2-.7zM26.8 67.1l1.6-1.3s.1 0 .1-.1v-.1l-.1-.2-.1-.1.2-.1 1 1.2c.2.2.3.4.4.6.1.2.1.4.1.6 0 .2-.1.4-.2.5-.1.2-.3.3-.4.5-.2.2-.5.3-.7.4-.2.1-.5 0-.7-.1-.2-.1-.5-.3-.6-.5l-1-1.3.2-.1.1.1.1.1c-.1 0-.1 0 0-.1 0 .1 0 .1 0 0zm.5.6c-.1 0-.1.1-.1.2s0 .1.1.2c.1 0 .1.1.1.1.2.2.4.3.7.2.3-.1.6-.2.8-.5.2-.1.3-.3.4-.5.1-.1.2-.3.2-.5s-.1-.4-.2-.5c-.1-.2-.2-.2-.4-.1l-1.6 1.4zM26.5 62.2c.1.2.2.4.2.6 0 .2 0 .4-.1.6-.1.2-.1.4-.3.5-.1.2-.3.3-.5.4-.2.1-.3.1-.5.2h-.6c-.4-.1-.8-.4-1-.8-.1-.2-.2-.4-.2-.6 0-.2 0-.4.1-.6.1-.2.2-.4.3-.5.2-.3.6-.5 1-.6h.6c.2.1.4.1.5.3.3.1.4.3.5.5zm-.2.1c-.1-.1-.2-.2-.4-.3h-.5c-.2.1-.5.2-.7.3-.2.1-.4.3-.6.4 0 .2-.1.3-.1.5s0 .3.1.5c.1.1.2.2.3.2h.4c.1 0 .3-.1.4-.1.2-.1.3-.1.4-.2.3-.2.6-.4.8-.7 0-.2 0-.4-.1-.6zM22.3 59.1l2-.8s.1 0 .1-.1V58l-.1-.2.2-.1.7 1.8c.1.2.1.3.1.5 0 .1-.1.3-.1.4-.1.1-.2.2-.3.2h-.4c-.1 0-.3-.1-.4-.2-.1-.1-.2-.3-.3-.4v.4c0 .1-.1.2-.2.3-.1.1-.2.2-.3.2l-.2.1s0 .1-.1.1v.1c0 .1.1.1.1.1.1 0 .2 0 .3-.1l.1.2c-.1.1-.3.1-.4.1-.1 0-.2-.1-.3-.2-.1-.1-.2-.2-.2-.3-.1-.2-.1-.4 0-.5l.3-.3.4-.2c.1 0 .2-.1.3-.2.1-.1.1-.3 0-.5 0 0 0-.1-.1-.1l-1 .4s-.1 0-.1.1v.2l.1.2-.2.1-.6-1.5.2-.1c0 .1.1.2.1.3.1.1.2.2.3.2zm1.3.3l.2.4c.1.3.4.4.6.3h.1c.1 0 .2-.1.3-.2.1-.1.1-.3 0-.4v-.1-.1c0-.1-.1-.1-.1-.2h-.2l-.9.3z"/><path class="st9" d="M23.5 55.4c0-.1 0-.1 0 0 .1-.2.1-.2.1-.3V55h.2l.4 1.7c.1.3.1.6 0 .9-.1.2-.3.4-.5.4h-.4c-.2-.1-.3-.2-.4-.3-.1-.3-.2-.5-.3-.8 0-.1 0-.2-.1-.4l-.9.2s-.1 0-.1.1v.2c0 .1 0 .2.1.2h-.2l-.4-1.6.2-.1c0 .1.1.2.1.3 0 .1 0 .1.1.1h.1l2-.5zm-1 .9l.1.3c0 .2.1.3.3.4.2.1.3.1.5 0 .1 0 .3-.1.4-.2.1-.1.1-.2.1-.4v-.2c0-.2-.1-.3-.2-.3l-1.2.4zM20.7 52.2l2.1-.1c.1 0 .1 0 .1-.1V51.7h.2l.1 1.6H23v-.2-.2s0-.1-.1-.1h.1l-2.2.2c-.1 0-.1 0-.1.1V53.4h-.2l-.1-1.6h.2v.1c0 .1 0 .2.1.2v.1zM21.2 48.4l1.6.1h.1v-.1-.3h.2l-.1 1.6h-.2v-.2-.2h-.1l-1.5-.2h-.4c-.1 0-.2.1-.2.2-.1.1-.1.3-.1.4 0 .2.1.4.2.5.2.1.4.2.6.2h1.6c.1 0 .1-.1.1-.1 0-.1.1-.2.1-.3h.2v1.2h-.2c0-.1 0-.2-.1-.3-.1-.1-.2-.1-.4-.1h-1.3c-.2 0-.4-.1-.5-.2-.1-.1-.3-.2-.3-.4-.1-.2-.1-.4-.1-.6 0-.2 0-.5.1-.7.1-.2.2-.3.3-.4 0-.1.2-.2.4-.1zM23.6 46.5c0 .2-.1.4-.2.6-.1.2-.3.3-.4.4-.2.1-.3.2-.5.2h-.6c-.2 0-.3-.1-.5-.2s-.3-.2-.4-.3c-.1-.1-.2-.3-.3-.4-.2 0-.3.1-.5.1s-.2.1-.2.2.1.2.3.2v.2c-.1 0-.3-.1-.4-.2-.1-.1-.2-.2-.2-.3v-.4c0-.1.1-.2.1-.3.1-.1.2-.2.3-.2h.5v-.3c0-.3.2-.6.4-.8.2-.2.4-.3.7-.4.3-.1.5-.1.8 0 .2 0 .4.1.5.2.2.1.3.2.4.4.1.2.2.3.2.5v.8zm-2.2-1.1c.1 0 .2.1.2.2.1.1.1.1.1.2v.3c0 .1-.1.3-.2.4-.1.1-.3.2-.4.2l.9.3c.3.1.6.1.9 0 .3-.1.5-.5.4-.8v-.1c-.1-.1-.2-.3-.4-.3-.2-.1-.4-.2-.6-.2-.3-.1-.6-.1-.9-.2zm.2.7c0-.1 0-.2-.1-.3-.1-.1-.2-.1-.3-.1h-.1c-.2 0-.3.1-.3.4v.3h.2c.3-.1.5-.1.6-.3zM71.6 61.8c.1-.2.2-.4.4-.6.2-.1.3-.2.5-.3.2 0 .4-.1.5-.1.2 0 .4.1.6.2.2.1.3.2.4.3.1.1.2.3.3.4.1.2.1.3.1.5h.5c.1 0 .2 0 .2-.1s0-.2-.2-.3l.2-.2c.1.1.2.1.3.3.1.1.1.2.1.3 0 .1 0 .2-.1.3 0 .1-.1.2-.2.3-.1.1-.2.1-.3.1-.1 0-.2 0-.3-.1h-.1c0 .1-.1.2-.1.2-.1.3-.3.5-.6.6-.2.1-.5.2-.7.2-.3 0-.5-.1-.7-.2-.2-.1-.3-.2-.5-.3-.3-.3-.4-.6-.4-1 .1-.1.1-.3.1-.5zm1.9 1.5c-.1 0-.1-.1-.2-.2 0-.1-.1-.2-.1-.3 0-.1 0-.2.1-.3l.3-.3c.1-.1.3-.1.4-.1-.2-.2-.5-.4-.8-.5-.3-.1-.6-.2-.9-.2-.2 0-.4.1-.5.3-.1.1-.1.3 0 .5 0 .1.1.3.2.4.2.1.3.3.5.4.4.1.7.2 1 .3zm0-.6c-.1.1-.1.2 0 .3 0 .1.1.2.2.2h.1c.2 0 .3-.1.4-.3 0-.1.1-.2.1-.3h-.1c-.4-.1-.6-.1-.7.1zM71.4 66.8l-1.7-1.2-.1-.1h-.1l-.1.1-.1.2-.2-.1 1.6-2.2.9.6-.1.2c-.1 0-.2-.1-.4-.1h-.3c-.1 0-.2.1-.3.1l-.3.3c0 .1-.1.2-.1.2 0 .1 0 .1.1.2l.7.5v-.1c.1-.1.1-.3.1-.4 0-.2-.1-.3-.2-.4l.1-.2 1.2.8-.1.2c-.1-.1-.2-.1-.3-.1h-.3c-.1.1-.2.1-.3.2l.8.6.1.1h.1l.2-.2c.1-.2.2-.3.2-.5v-.4c-.1-.2-.2-.3-.3-.5l.1-.1.9.7-1.6 2.3-.2-.1.1-.1c0-.1.1-.1.1-.2-.1-.2-.1-.3-.2-.3zM68 68.3c-.1-.1-.2-.2-.2-.4v-.5c0-.2.1-.3.2-.5.2-.2.4-.4.7-.4v-.3l.1-.1.9.6-.1.2c-.2-.1-.4-.1-.6-.1-.2 0-.3 0-.5.1-.1.1-.2.1-.3.2-.1.1-.1.2-.2.4 0 .1 0 .2.1.3.1.1.2.1.3.1.2-.1.3-.1.4-.3.2-.1.3-.3.5-.4.2-.1.3-.2.5-.2s.4.1.6.2l.1.1c.1.1.2.2.2.4v.5c0 .2-.1.3-.2.5-.2.2-.5.4-.8.5v.4l-.1.1-.9-.7.1-.2c.3.1.6.1.9.1.2 0 .4-.2.6-.3.1-.1.2-.2.2-.4 0-.1-.1-.3-.2-.3l-.1-.1c-.1-.1-.2 0-.4.1l-.6.4-.6.3c-.3-.1-.5-.2-.6-.3zM77.4 47.4l-2.1.2h-.1v.4H75l-.2-2c0-.2 0-.4.1-.5.1-.1.1-.3.2-.4.1-.1.2-.1.4-.1.1 0 .3 0 .4.1l.3.3c.1.1.1.3.2.5 0-.1.1-.3.2-.4.1-.1.2-.2.3-.2.1-.1.2-.1.4-.1.1 0 .2-.1.2-.1s.1 0 .1-.1v-.1c0-.1-.1-.1-.1-.1h-.3v-.2c.1 0 .3 0 .4.1.1.1.2.1.2.2.1.1.1.2.1.3 0 .2 0 .4-.2.5-.1.1-.2.2-.4.2l-.5.1c-.1 0-.2.1-.3.2-.1.1-.1.3-.1.5v.2l1-.1c.1 0 .1 0 .1-.1v-.2-.2h.2l.1 1.6h-.2v-.3s0-.1-.1-.1c0-.1-.1-.1-.1-.1zm-1.2-.7l-.1-.4c0-.3-.2-.5-.5-.5h-.1c-.1 0-.3 0-.4.1-.1.1-.1.3-.1.4v.2c0 .1 0 .1.1.2 0 0 .1.1.2.1l.9-.1zM76.9 51.2H75.2v.4h-.3V50h.3V50.3h2c.1 0 .2-.1.3-.2.1-.1.1-.3.1-.5s-.1-.4-.2-.5c-.2-.1-.3-.2-.6-.2h-1.6c-.1 0-.2.1-.2.2s0 .2-.1.3h.1v-1.2h.3c0 .1 0 .2.1.3.1.1.2.1.4.1H77c.2 0 .4.1.5.2.1.1.3.2.3.4.1.2.1.4.1.6 0 .2 0 .5-.1.7-.1.2-.2.3-.3.4-.1.2-.3.3-.6.3zM74.9 53.8c-.1 0-.1 0-.1.1s0 .3.1.4l.3.3c.1.1.3.1.4.1v.2l-1.1-.2.3-2.7 1.1.1v.2h-.4c-.1 0-.3.1-.4.2-.1.1-.2.2-.2.3 0 .1 0 .2.1.2l2.3.3h.1c0-.1.1-.2.1-.3v-.1h.2l-.2 1.7h-.2v-.3-.1h-.1l-2.3-.4zM76.5 56.8l-2.1-.5h-.2c0 .1-.1.1-.1.2v.1H74l.4-1.6h.2v.5s.1 0 .1.1l2.1.5h.1c.1-.1.1-.1.1-.2v-.1l.2.1-.4 1.6-.2-.1v-.1-.2c0-.2 0-.2-.1-.3zM74.7 60.4l-1.5-.6h-.1s-.1 0-.1.1c0 0-.1.1-.1.3l-.2-.1.6-1.5.2.1-.1.2v.2c0 .1.1.1.1.1l1.4.6c.1.1.3.1.4.1.1 0 .2 0 .3-.1.1-.1.2-.2.2-.4.1-.2.1-.4 0-.6-.1-.2-.3-.3-.5-.4l-1.3-.5h-.3c-.1 0-.1 0-.2.1s-.1.1-.1.2l-.2-.1.4-1 .2.1v.4c.1.1.2.2.3.2l1.2.5c.2.1.3.2.5.3.1.1.2.3.2.5s0 .4-.1.6l-.3.6c-.1.1-.3.3-.4.3-.2 0-.4 0-.6-.1l.1-.1z"/><path d="M28 59.4c.1.5.2 1 .4 1.7 13 8.1 28.6 2.7 34.5-.8 3-1.7 5.9-3.6 8.6-5.6 0-.4 0-.9-.1-1.3-3.1 2.2-6.3 4.2-9.8 5.9-12.1 6.8-27.3 5.5-33.6.1z" fill="#979da0"/><path d="M48.9 50.7l12 8.9c-9.4 5-24.6 6.5-32.8-.2 1.3-7.9 5.4-13 11.6-15.6l.8.6" fill="#fff" stroke="#808184" stroke-width=".419" stroke-linecap="round" stroke-linejoin="round" stroke-miterlimit="3.988"/><path class="st12" d="M42.9 63.9l13.6-7.5 2.4 1.7-9.4 5.3c-2.2.4-4.4.6-6.6.5zM52.5 53.5l2.1 1.6L38 63.6c-1.2-.2-2.4-.5-3.6-.9l18.1-9.2zM50.8 52.2L41 56.9l-9.5 4.7c-.9-.5-1.8-1-2.5-1.4l19.8-9.4 2 1.4zM28.4 58l18.7-8.5-1.7-1.2-16.3 7.2c-.3.8-.5 1.6-.7 2.5zM30 53l13.8-5.9-1.4-1.1-10.9 4.4c-.6.8-1.1 1.7-1.5 2.6zM33.1 48.4l8.3-3.1-1-.8-4.8 1.7c-.9.7-1.7 1.4-2.5 2.2z"/><path class="st4" d="M39.6 43.9l21.3 15.8c3.6-1.8 7.1-3.9 10.4-6.3-4.5-1.1-8.8-1.8-13.4-7.3-7.7-1-9.6-3.3-10.4-4.3l-7.9 2.1z"/><path d="M48.9 50.6l12 8.9c-9.5 5-24.4 6.6-32.8-.2 1.3-7.9 5.4-12.9 11.6-15.6l.8.6" fill="none" stroke="#747a7c" stroke-width=".419" stroke-linecap="round" stroke-linejoin="round" stroke-miterlimit="3.988"/><path class="st14" d="M44.3 69.7h-.4l.4-15.8h.5l-.5 15.8z"/><path class="st14" d="M46.8 70.5l-.4.1-2.1-15.7.4-.1 2.1 15.7z"/><path class="st14" d="M49.8 70l-.5.2L44.6 55l.4-.1 4.8 15z"/><path class="st14" d="M51.5 69.4l-.4.2-6.6-14.4.4-.2 6.6 14.3z"/><path class="st14" d="M42.2 66.2l-.5-.1 3.8-14.3.4.1-3.7 14.2z"/><path class="st14" d="M43.7 67.2l-.4-.1 1.9-14.6h.4l-1.9 14.6z"/><path class="st14" d="M56.4 62.9l-.3.3L44.4 53l.3-.3 11.7 10.1zM47.5 67.5h-.4l-3-14.2.5-.1 2.9 14.2z"/><path class="st14" d="M56.5 65.7l-.4.3-10.4-11.5.4-.3 10.3 11.5z"/><path class="st14" d="M54.1 65.5l-.4.3-9.3-12.4.3-.3L54 65.5z"/><path class="st14" d="M45.1 66.3h-.5l-.4-13h.5l.4 12.9z"/><path class="st14" d="M51.5 66.2l-.4.2-6.7-13.2.4-.2 6.7 13.1z"/><path class="st14" d="M53.9 68.3l-.4.3L45.3 55l.4-.3 8.1 13.5z"/><path class="st15" d="M45.1 69.2L44 72.7l-.9-3.5 1 .5 1-.5z"/><path class="st16" d="M44 72.7l.1-3 1-.5-1.1 3.5z"/><path class="st15" d="M47.5 69.9l-.5 3.6-1.5-3.3 1 .3 1-.6z"/><path class="st16" d="M46.9 73.5l-.4-3 1-.6-.5 3.5z"/><path class="st15" d="M50.4 69.3l.1 3.6-2-3 1 .2.9-.8z"/><path class="st16" d="M50.5 72.9l-1-2.8.9-.8.1 3.5z"/><path class="st15" d="M52 68.5l.6 3.7-2.4-2.8h1.1l.7-.9z"/><path class="st16" d="M52.6 72.2l-1.3-2.8.7-.9.6 3.6z"/><path class="st15" d="M43 65.9l-1.7 2.9-.1-3.3.7.6 1.1-.2z"/><path class="st16" d="M41.3 68.8l.6-2.7 1.1-.2-1.7 2.9z"/><path class="st15" d="M48.2 66.8l-.2 3.4-1.6-3 1 .3.8-.7z"/><path class="st16" d="M48 70.2l-.6-2.7.8-.7-.2 3.3z"/><path class="st15" d="M44.5 66.7l-1.3 3.2-.5-3.4.8.6 1-.4z"/><path class="st16" d="M43.2 69.9l.3-2.8 1-.4-1.3 3.2z"/><path class="st15" d="M56.6 61.9l1.9 3-3.2-1.5 1-.4.3-1.1z"/><path class="st16" d="M58.5 64.9L56.3 63l.3-1.1 1.9 3z"/><path class="st15" d="M56.7 64.8l1.6 3.2-3.1-1.9 1.1-.2.4-1.1z"/><path class="st16" d="M58.3 68l-2-2.2.4-1 1.5 3.1z"/><path class="st15" d="M54.4 64.6l1.3 3.4-2.9-2.2 1.1-.2.5-1z"/><path class="st16" d="M55.7 68l-1.8-2.4.5-1 1.2 3.2z"/><path class="st15" d="M45.8 65.8l-.9 3.3-1-3.2.9.4 1-.5z"/><path class="st16" d="M44.9 69.1l-.1-2.8 1-.5-.9 3.3z"/><path class="st15" d="M52 65.4l.7 3.5-2.4-2.6h1l.7-.9z"/><path class="st16" d="M52.7 68.9l-1.4-2.6.7-.9.7 3.4z"/><path class="st15" d="M54.3 67.4l1 3.6-2.7-2.5 1.1-.1.6-1z"/><path class="st16" d="M55.3 71l-1.6-2.6.6-1 .9 3.5z"/><path d="M28.3 45.7c.2.6 1 2 1.3 1.2-.1.4.6 1 1 1 .1.1.7 1.6 1.6.9-.5.5-.1.7.5 1 .8.5 2.3 1 2.5.8.8.7 4 1.8 6.1 2.5.3.3.6.6.3 1-2.1-.8-4-1.6-6.1-2.4-.4-.2-.7 0-1.1-.2 1.3-.2-1.7-.6-2-.8-.5-.2 1.3-.2-.6-.7-.3-.2-1.3-.4-1.6-.6-.3-.2 1.6.4.2-.6-.4-.6-.9-.4-1.1-.6 1-.2-.3-.6-.4-.9.7.2-.5-.4-.6-1.6z" fill="#ad8156" stroke="#7d4802" stroke-width=".449" stroke-linecap="round" stroke-linejoin="round" stroke-miterlimit="3.988"/><path class="st18" d="M30.7 48.1c-1.3-1 .5-2.7.8-4.7.3-.1 1.6 4.1-.8 4.7zM35.4 51c-1.8-.5.2-2.7 0-4.6.4-.2 2.1 3.8 0 4.6zM28.3 45.8c-2.3-.5-1.2-2.7-1.5-4.5.2-.1 2.5 2.8 1.5 4.5z"/><path class="st18" d="M28.6 46.7c-1.1-3.2-2.7-1.8-4-2.5.8 1.5 2.4 2.5 4 2.5zM30.1 48.7c-2.6-2.2-3 .1-4.7-.1-.2.3 2 1.7 4.7.1zM31.9 49c2.2-1 1.1-2.2 1.7-3.6-1.4.5-2.2 2.1-1.7 3.6zM32.8 50.7c-3.9-.7-3.5 1.3-5.1 2.1.1.3 3.9 0 5.1-2.1z"/><path class="st18" d="M34.9 51.6c-2.6-1.2-2.9.6-4.2 1.1-.2.1 2 .9 4.2-1.1z"/><path class="st18" d="M35.6 51.7c.4 2-1.4 2-2.8 2.5.4-.5.2-2.1 2.8-2.5zM33.8 50.3c-2.1-.8.1-2.8.6-4.6.3-.1 1.4 2.1-.6 4.6zM31.9 50.1c-3-1.3-3.1.8-4.4 1.3-.2.3 2.3 1 4.4-1.3zM29.6 47.2c-1.3-.4-.2-4.3 0-4.9.3-.2 2 3.8 0 4.9zM29.2 47.5c-1.7-2.9-2.9-1.2-4.4-1.6.7.3 1.4 2.2 4.4 1.6z"/><path class="st19" d="M29.7 44.1c.3 1-.6 2.4-.1 3M31.5 45.1c-.7 2-.5 2.3-.9 2.8M32.9 46.7c-.5.6-.8 1.4-.9 2.2M34.4 47c.1.8-1.3 2.2-.7 3.1M27.4 43c.2 1.6.6.9.9 2.8M26.3 45.1c.1.5 1.9.6 2.1 1.3M26.6 46.5c.7.4 1.7 0 2.5 1M27.1 48.7c.7.2 1.3-1 2.9 0M29 51c.9-.2.9-1.6 2.8-.9M29.3 52.2c1.8-.7.8-1.2 3.4-1.4M31.9 52.4c1.2-.2 1-1.2 2.9-.9M33.6 53.5c.9-.2.4-1.1 1.9-1.7"/><path class="st18" d="M33.3 51.9c0-.2.2-.5.6-.5s.7.1.7.4-.2.5-.6.5c-.4 0-.7-.1-.7-.4zM33.5 48.1c.2 0 .4.3.3.6 0 .3-.2.6-.5.5-.2 0-.4-.3-.3-.6s.3-.5.5-.5z"/><path class="st18" d="M34.2 48.3c.2 0 .4.3.4.6s-.2.6-.5.5-.4-.3-.3-.6.2-.5.4-.5zM32.9 48.5c.2 0 .4.3.4.6.1.3-.1.6-.4.7-.2 0-.4-.3-.5-.6.1-.3.3-.6.5-.7z"/><path class="st18" d="M34.5 49.3c.3 0 .6.2.7.5.1.4.1.7-.1.9-.3 0-.6-.2-.7-.5-.2-.3-.2-.6.1-.9zM29 49.2c.1-.3.4-.4.8-.4.4.1.7.4.6.6-.1.2-.4.4-.8.4-.3 0-.6-.3-.6-.6zM33.4 49c.2 0 .4.2.5.5.1.3 0 .6-.2.7-.2.1-.4-.2-.5-.5-.1-.2 0-.5.2-.7zM31.1 51c0-.2.3-.5.7-.6.4 0 .8.1.8.4 0 .2-.3.5-.7.6-.4 0-.8-.1-.8-.4zM28.2 47.9c.1-.2.5-.4.9-.2s.6.5.5.7c-.1.3-.5.3-.9.2-.4-.2-.7-.5-.5-.7zM28.6 44.9c.2 0 .4.4.3.7 0 .4-.3.6-.5.6s-.4-.4-.3-.7.3-.7.5-.6zM27.9 43.7c.2 0 .5.2.5.6 0 .4-.1.7-.4.7s-.5-.2-.5-.6c.1-.3.2-.7.4-.7zM31.6 47.7c.3 0 .5.4.5.7 0 .4-.2.7-.5.7s-.5-.3-.5-.7.3-.7.5-.7zM30.1 46.3c.3 0 .5.4.5.7 0 .4-.2.7-.5.7s-.5-.3-.5-.8.2-.6.5-.6z"/><path d="M41.1 53.1c-.2.3-.1.6.1.9" fill="none" stroke="#7d4802" stroke-width=".259" stroke-linecap="round" stroke-linejoin="round" stroke-miterlimit="3.988"/><path class="st19" d="M35.6 47.8c.4 1-.7 2.5-.3 3.1"/><path class="st21" d="M56 34.8c.7-.4.9-1.8 1.9-2.9 1.7 1.2 3.4 2.3 5.3 3.1-.6.6.8.8 1.3 1.2-.8.7-1.9.8-2.8.2-.9.1-1.8-.1-2.6-.6-1.8.3-2.3-.4-3.1-1zM34.2 41.1c1.3.6 2.6 1.3 3.9 2 1.6.7 3.4 1 5.2.7.1.5.1.2.2.2 2.6.1 1.2-.6 2.2-.4 1 0 2.7-1.2 3.2-.1-.1.1 0 .2.2.4 1.4.3 2.7 1 4.3.9-1.5-3.1-2.6-3.8-3.9-5.8-1.3.9-4.8-1.5-7.1-2.2-.8 0-1.6-.2-2.3-.6-1.3-.5-.9-1.3.1-2.4-2.1-.1-4.3.3-6.2 1.2.9 1.5-1.5 6.6.2 6.1z"/><path class="st22" d="M48.8 43.7c1.3 3.6 2.4 7.4 4.2 7.1.5.5 1 .7 1.5.5 1.3.7 1.7.6 2.1.4.7.6 1.3.7 1.7.4.9.4 1.5.5 1.8.1 1.1.7 1.7.5 2.2.2-3.4-2.3-6.4-5-8.9-8.2-.1-1.1-1.3-1.5-1.4-.7.6 1.6-1 .8-1.3.1.3.8-.4.7-.9.1-.1.7-.9 0-1 0z"/><path class="st22" d="M49.1 39.1c.2-.6.4-1.2.7-1.8 5.6 4.2 5.2 11.4 15.7 14.5-1 .8-2.3.9-3.4.4-2.2-.9-5.3-2-13-13.1z"/><path class="st21" d="M40.1 33.8c0-1.2-.2-2.9-3.6-3.9-1.8-.8-1-3.9 2-4.3.4 1.7 4.2 3.4 1.6 8.2z"/><path class="st23" d="M47.2 27.3c2.1 0 4.2-.2 6.2-.8 4.9 3.1 3.6 1.1 4.9 1.8 2.8 1 6.1 3.2 8.2 2.7 2.4 1.5 4.8 2.8 7.4 3.8-.5 1 1.3 1 2 1.6-.4.9-1.3.3-2.1.5.1.2-1.3.1-2-.2-1.5.2-2.2-.7-3.6-1.3-1.6 1.1-4.5-1.8-6.6-2.5-1.5-.6-1.9.7-3.8-.9-1.1 1.5-2.1 3.1-2.9 4.8.4.8.4 1.8 0 2.6.1.8-.3 1.3-1.7 1-1.3-1-2.5-2.1-3.8-3.1.6-3.3-1.2-7-2.2-10z"/><path class="st21" d="M47.2 27.3c2.1 0 4.2-.2 6.2-.8 4.9 3.1 3.6 1.1 4.9 1.8 2.8 1 6.1 3.2 8.2 2.7 2.4 1.5 4.8 2.8 7.4 3.8-.5 1 1.3 1 2 1.6-.4.9-1.3.3-2.1.5.1.2-1.3.1-2-.2-1.5.2-2.2-.7-3.6-1.3-1.6 1.1-4.5-1.8-6.6-2.5-1.5-.6-1.9.7-3.8-.9-1.1 1.5-2.1 3.1-2.9 4.8.4.8.4 1.8 0 2.6.1.8-.5 1.5-1.7 1-1.3-1-2.5-2.1-3.8-3.1.6-3.3-1.2-7-2.2-10z"/><path class="st21" d="M38.9 35.3c-.6.9 1.3 1.6 2.7 1.6 1-.1 2.4.9 3 1 1.4.7 2.5 1.6 4.5 1.6.9-.3.6-1.6.7-2.3.1-2.4-1.7-6.7-2.6-9.7.8.8 2.1.9 3.1.2.5 0 1.8.3 1.7-.7 1.3.1 1.7-.1 1.4-.5 1.6.5 3.6 2.3 4.7 1.6 2.9.7 6.7 4 8.7 2.5-6.3-3.6-14.1-7.3-20.1-8.6-3.6-.5-6.4-.1-7.4 1.4-.7 1.3-1 2.5.1 3.6 1.1 2 3.1 3.8-.5 8.3z"/><path class="st21" d="M50.8 23.2c3.4.7 6.7 1.7 10 2.9.2.5-.3.6-1 .7-3-1.1-5.9-2.3-9-3.6z"/><path class="st23" d="M45 37.1c1.7.7 4.8 2.8 4.7.9M45.2 36.1c1.1.4 5.4 3.1 4.7.9M45.3 35.3c1.6.6 5.2 2.8 4.5.6M45.3 34.4c1.7.6 4.9 2.6 4.3.4M57.3 32.8c2.1 1.1 5.2 3.8 5.8 2.2M45.3 33.7c1.6.6 4.7 2.1 4 .1M45.3 32.9c1.7.5 4.4 1.5 3.8 0M45.3 32.2c1.8.5 4.5 1.4 3.4-.3M45.1 31.4c1.8.3 4.3 1.4 3.3-.3M44.8 30.5c1.8.5 4.5 1.5 3.4-.2M44.5 29.6c1.8.5 4.8 1.5 3.3-.3M43.9 28.3c1.7.2 4.6 1.2 3.3-.5M44.1 29c1.9.4 4.5 1.3 3.5-.4M43.4 27.7c1.8.4 5.1.7 3.4-.6M43 26.9c1.8.6 4.8.7 3.5-.4M42.6 26.3c1.8.7 4.8.8 3.6-.3M42.4 25.7c1.8.6 5.5.4 3.6-.6M42 25c1.8.6 4.7.7 3.5-.4M42.5 24.5c1 .2 3.9.9 2.6-.5M50.4 27.7c2.5 1.7 7.2 6.2 7.4 4.3M49.9 28c2.5 1.7 6.9 6.6 7.5 4.5M49.3 28.1c2.5 2.5 7.4 7.5 7.7 5M48.5 30.9c2.4 1.7 6.1 7.8 7.3 4.6M49 32.3c2.1 1.6 5.3 6.9 6.2 4M49.4 33.7c1.6 2 5.5 6.2 5.9 4M49.7 35.7c1.8 1.3 3.8 4.7 5.5 3.3M47.8 29c2.7 1.9 7.1 9.3 8.5 5.4M47.6 27.8c2.9 2.1 8 9.3 9.1 6M51.2 27.8c2.1 1.5 4.3 2.9 6.6 4.2M56.8 33.5l4.8 3M56.5 34.2l2.6 1.7"/><path class="st21" d="M41.6 36.9c3-4.9 1.3-7.8-.2-10.2.3-.1.6-.7.1-.8.3-.1.5-.5.4-.8 3 4.4 4.4 8.8 2.6 12.8-.9-.4-1.9-.7-2.9-1z"/><path class="st23" d="M42.1 36c1.6 1 3 1.5 2.9.5M42.5 35.3c1.6.9 3 1.4 2.8.1M42.8 34.4c1.6.9 2.8 1.2 2.6-.1M43 33.7c1.6.9 2.5.9 2.3 0M43.2 33c1.7.5 2.5.9 2.1-.4M49 25.8c.6.2 3.9 0 2-1.2M47.6 24.5c.6.9 3.6.5 2.3-.2M45.3 24.1c.4.9 3.4.9 2.1.1M45.7 24.9c.4.9 3.6.7 2-.2M46.3 25.9c.2.6 4.2.4 2-.7M48 26.2c.6.3 7.2.9 3.8-1M46.7 26.7c.4.2 3.1 1 3.1-.1"/><path class="st23" d="M46.8 26.8c.6 1.2 2 1.7 3.2 1.1.1-.1.3-.2.4-.3M48.4 27.1c.7.3 3.8 1.2 3.5-.1M50.4 26.6c.4.2 3.9.9 2.9-.3M43.3 32.3c1.3.3 2.2.7 1.8-.3M43.3 31.6c1.3.4 2.1.6 1.5-.6M43.2 31c1.2.1 1.7.2 1.5-.6M43.1 30.4c.9.1 1.9-.1 1.3-.8M43 29.9c1.3-.1 1.7-.2 1-.9M43 29.3c1.2-.2 1.2-.4.9-.9M42.8 28.7c1.1-.1 1-.4.8-.8M42.5 28.2c.9-.1 1.2-.4.9-.9M42.2 27.8c1.1-.2 1.2-.5.8-.9M41.9 27.4c1-.4 1.3-.7.8-1.1M41.7 26.9c.9-.6 1.2-.9.4-1.6"/><path class="st24" d="M56.5 47.6c1.6 1.3 2.7 3.6 5.8 3.1M60.1 50.5c1 .5 2.4 1.9 4 .8M49.5 44c.8 2.4 2 4.7 3.5 6.7M50.3 44.3c1.1 2.5 2.5 4.8 4.2 7M51.2 44.3c.8 2.4 4.4 6.4 5.4 7.3M51.9 44.4c.8 1.9 5.4 6.7 6.4 7.5M52 43.5c.8 2.4 6.8 8.1 8.1 8.7"/><path class="st23" d="M44.7 44c.2.7.6 1.3 1.2 1.8.5-.6.7-1.4.6-2.1M46.6 43.5c.3.9.3 1.3.9 1.8.7-.5.6-1.4.7-2.1M41.9 43.8c.1.8.5 1 .8 1.5.4-.3.6-.8.5-1.2"/><path class="st23" d="M40.9 43.8c0 .7.1 1.4.5 2.1.5-.4.7-.9.7-1.5"/><path class="st23" d="M42 45.1c.1 1 .5 1 .9 1.6.4-.4.6-.9.6-1.5M41 45.2c.1 1 0 1.3.5 1.9.7-.6.5-.4.8-1"/><path class="st23" d="M40.5 45.2c-.1.7-.4 1.1.1 1.7.3-.3.4-.6.5-1"/><path class="st23" d="M40.7 46.8c-.1.8.2 1 .4 1.7.6-.4.6-1 .9-1.7M42 46.8c0 .7.3 1.3.8 1.7.7-.6.6-1.4.5-2.1M43.2 44.2c.3.8.7 1.6 1.4 2.2.4-.7.6-.9.5-1.6M45.7 45.6c-.1 1.2.5 1.5 1.1 2 .6-.6.8-1.4.6-2.2"/><path class="st23" d="M44.7 46.4c-.2.8.1 1.7.7 2.3.5-.4.7-1.1.6-1.8"/><path class="st23" d="M43.8 46.9c.1 1 0 1 .4 1.6.5-.6.7-1.3.5-2.1M44 48.6c-.1 1.2.2 1.2.8 1.7.7-.8 1-1.1.8-1.9M46 47.2c-.1.8.4 1.7 1.1 2.1.5-.5.7-1.3.6-2"/><path class="st23" d="M47.5 46.1c-.1.8.4 1.6 1.2 1.8.4-.6.5-1.3.4-2M47 49.2c.1.7.5 1.3 1 1.8M47.8 48.1c.2.6 1 2.3 1.3 1.5M47.8 45c.2.6 1 2.1 1.3 1.2M45.7 49c.1 1 .5 2 1.2 2.7M45.6 43.7l.2 1.1M47.5 43.2v1.2M48.5 43.2l.1 1.7M46.5 44.6l.2 1.9M45.2 45.3l.1 1.9M46.9 47.4l.1 1M48.2 45.8l.3 1.1M44.2 44.2l.3 1M42.5 43.9l.2.9M41.4 43.9V45M42.7 45.3l.2.9M41.7 45.6l-.1.9M41.2 46.4l.1 1.2M42.6 46.4l.1 1.1M43.7 45.5l.3 1.3M48.6 47.9l.2 1M44.7 47.7v1.5M40.9 48l-.1.5M42.5 48.2l-.1.7M43.3 47.5c.2.3.1.4.5.6M43 41.1c2 1 1.6 1.7-.3 1.3M44.4 42.3c1.8 0 1.7 1.2-.2 1M43.3 39.8c2.5 1 2 1.8-.3 1.3M43.3 38.1c1.1.4 1.3 1.4-.9.9 1.1.7-.4.9-1.2.5M40.8 39.4c2.1.6 1.1 1.3-.5.9M40.5 40.4c1.7.8 1.3 1.4-.4 1.1M44.1 37.8c2.1.7 1.5 1.3.1 1M42 40.2c1.8.7 1.2 1.2-.5.9M39.4 41.3c1.8.7 1.2 1.2-.5.9M40.4 38.3c.9.5 1 1.3-.9 1M39.1 36.1c.9.4.5.9-.7.9 1.6.7-.1 1.5-1 1.1"/><path class="st23" d="M41.5 36.9c1.6.4 1.9.9 0 .8 1.4.6.6 1.5-.7.8M36.7 34.6c1.5.1 1.1.8-.2 1 .9.6.2 1.4-.5 1.3M40.4 36.7c1.5.9 0 1-.7.9 1.7.9.2 1.2-.9 1 .6 1.1-1.1.9-1.3.9M38.3 35c.7.4.5 1.1-.6 1.1.7.5.5 1.3-.6 1.3M36.8 37.8c1.2.5.7 1.4-.4 1.2M36.8 39c1.2.4.9 1.4-.1 1.3M41 36.1c.6-.6 1.7-.4.5.7M42.3 31.8c.1-.6.9-1 .7.2M41 36.1c.6-.6 1.7-.4.5.7"/><path class="st23" d="M37.6 39.4c1.3.5 1.4 1.5-.2 1.2.6.6 0 .8-.7.7M39.5 39.3c.9.5 0 1.3-.9 1.1M39.9 40.6c.6.4-.5 1-1.3.6.2.4 1 1.5-1.2.7 1.9 1.7-.2.9-1.4.1"/><path class="st23" d="M35.9 39.3c.7.6 1 1.3.1 1.3.8.8.4 1.6-.9 1M50.4 43.6c.4.9-.5.4-.8 0M51.8 43.7c.6 1.3-.8.6-1.1 0M49.3 43c.6 1.3-.1 1.3-.7-.2M41.3 41.6c2.5.9 1.2 1.5-.8.7M40.4 42.3c2.5.9 1.8 1.7-.5 1.2M38.9 42.2c2.2.7 1.2 2.1-1.2.7M42.1 42.7c1.4.3.9 1.2-.3 1.2M43.3 42.5c1.5.3.9 1.3-.3 1.3M45.2 42.4c2.6.5 2.2 1.1-.1 1.2M45.3 41.1c2.2.5 1.8 1.3-.1 1.3M45.5 39.9c2 .8 1.5 1.4-.6 1.2M46.9 39.7c1.2.5 1.5 1.9-1.2.3M44.3 38.8c1.9.6 1.5 1.4-.2 1.2M46.7 42.1c.9-.2 2.6 1 .2 1M49 42c1.4 1.5-.7.8-1 .4M50.2 42.5c1.1 1.5.4 1.4-.8.3M50.3 40.9c1.7 2 1.3 2.9-.2 1.4M49.6 40.5c1.6 2.2.1 2.2-1 1M47.7 40.8c1.5.8.5 1.2-1.1.8M49 40.4c1.2 1.2.7 1.6-.9.6M53.1 26.9c2.2.9 3.8 3.4 7.5 3.4 4.5.4 12.5 6.6 13.2 4.7"/><path class="st23" d="M52.4 27c2 .9 4.2 3.3 7.3 3.8 3.4-.5 13 6 14.8 6"/><path class="st23" d="M51.9 27.2c2.1 1 3.9 3 7.4 4 4.9.2 10.4 4.5 12.8 5.5"/><path class="st23" d="M51.6 27.6c2 1 4.1 2.9 7.6 4.4 4.2-.5 7.8 3.1 9.1 3.3"/><path class="st21" d="M38.9 35.3c-.5 1.2 1.8 1.5 2.7 1.7 2.8-4.5 1.9-7.6-.2-10.2.5-.1.6-.5.2-.7.4-.2.2-.5.2-.8.5-.2.3-.5.1-.6 1.3-.2 1.1-.8.5-.9.5.2 4.1.7 2.7-.3.7.6 3.8 1.6 1.9 0 .5.1 2 1 2.4.9 1.7-.3 3.4 2.2 4.3 2.4 1.5 1 2.9 2.1 4.3 1.5 3.6 1.8 7.2 3.7 8.6 2.6-6.4-3.9-13.2-7.3-20.3-8.9-2.7-.4-5-.2-6.7 1-1 .8-1.6 3-.3 3.9 1.5 2.3 3.1 4.7-.4 8.4z"/><path d="M25 37.3c-.3-.4.8-1.3 3-1.3 1.9-.2 4.3-.4 5.9-1.2.4-.2.7.1 1.1.2-.4.1-.7.7-1 1 .6-.1 1.2.1 1.6.5-.5.1-1.1.1-1.6.6.6.6 1.2.5 1.8.7-.3.5-.9.9-1.6.9.5.5.9 1 1.2 1.6-1.1-.1-1-.1-1.7-.2.3.6.8 1 1.4 1.3-.4-.1-.8 0-1.2-.1-1-.4-2-.7-3.1-.9-1.5-.1-2.5-.3-3.8-.5.6-.2.9-.6-.3-1-.4.1-1-1.1-1.7-1.6z" fill="#fff" stroke="#63686b" stroke-width=".369" stroke-linecap="round" stroke-linejoin="round" stroke-miterlimit="3.988"/><path class="st26" d="M25 37.2c-.1 0-.5-.1-.9.3-.8.1-1.5.8-1.4 1.6 0 .5.3.9.7 1.2 0-.9.2-1.2 1-1.2 1.2.4 2 .1 2.7.5l-.1-.2c-1 0-2.1.1-3.3.1.3.6 2.7.2 3.4.6.9-.2.9-.6.7-.9-1.1-.4-2.1-1.1-2.8-2z"/><path d="M24.1 37.5c.1 1 1.8 1.7 3 1.6" fill="none" stroke="#7d4802" stroke-width=".449" stroke-linecap="round" stroke-linejoin="round" stroke-miterlimit="3.988"/><path d="M24.9 38s.1 0 .2.1.1.2.1.2-.2 0-.2-.1c-.1-.1-.2-.2-.1-.2z" fill="#fdbd10" stroke="#7d4802" stroke-width=".319" stroke-linecap="round" stroke-linejoin="round" stroke-miterlimit="3.988"/><path class="st23" d="M40.1 36c.5-.7 1.6-.6.6.7M37.6 27.8c.7.5.4 1.3-.3.7M42 31.8c-.1-.6.7-1.1.7.1M38.3 27.3c.5.4.3 1.2-.6.4M40.8 35.3c.5-.7 1.6-.6.6.6M42.6 31.4c-.1-.6.7-1.2.7 0M38.3 28.7c.5.4 0 1-.6.5M37.3 27.1c.6.4.3 1-.4.4M40.4 31.5c.4.3.2 1-.4.4M39.7 27.8c.4.2.3.8-.3.4M41 36.3c.4-.7 1.5-.6.6.6M37.2 28.7c.6.2.7 1.1-.3.6M41 36.3c.4-.7 1.5-.6.6.6M37 27.9c.5.4.5 1.1-.4.5M40 34.9c.4-.7 1.5-.5.6.6M38.6 28.1c.5.4.3 1.2-.5.4M41.7 31c0-.6.6-1 .6.1M38.6 28.1c.5.4.3 1.2-.5.4M41.7 34.9c.3-.5 1.4.1.4 1.1M38.4 29.4c.4.3-.1 1.1-.8.2M42.5 30.4c-.1-.4.9-.6.7.5M40.6 31c.3.2-.1.9-.7.1M42 34.3c.4-.7 1.5-.3.6.8M42.4 29.9c-.1-.6.8-.9.7.2M38.9 29.6c.5.4.1 1.2-.6.4M41.1 34.2c.4-.7 1.5-.5.6.6M38.9 28.8c.5.4.4 1.3-.4.5M41.9 30.4c-.1-.6.6-1 .6.1M39.2 27.4c.5.4.3 1.1-.5.4M41.5 33.7c.3-.8 1.3-1 .7.4M41.7 29.8c-.2-.6.4-1 .6 0M39.3 29c.8.4.8 1.2-.1.6M39.2 28.2c.7.4.7 1.2-.3.5M42.3 33.1c.3-.7 1.3-.2.6 1M42.1 29.1c-.1-.6.7-.8.9.2M42.3 33.1c.3-.7 1.3-.2.6 1M41.2 24.1c.5 0 .5.9-.5.7M40.7 24.8c.5 0 .5.9-.5.7M41.4 25.3c.6 0 .7.8-.5.6M41.5 25.9c.6-.1.7.7-.4.8M41.3 23.3c.6 0 .5.9-.6.7M42.6 22.8c.9.1.6 1-1 .9M39.8 29.9c.5.3.2.9-.6.4M41.2 28.6c-.2-.6.3-1 .6-.1M40.6 30.1c.5.4 0 1-.6.3M42.5 32.4c.2-.8 1.1-.7.7.5M41.3 27.8c-.1-.6.7-.9.7.1M39.8 30.5c.5.4 0 1-.6.3M41.5 32.7c.2-.7 1.1-.9.7.3M41.2 29.2c-.2-.5.2-1 .6-.1M40.3 29.3c.5.2.5.9-.3.4M40.2 28.5c.5.2.4 1-.4.4M47.6 24.5c.6.9 3.6.6 2.2-.2M41 36.1c.6-.6 1.7-.4.5.7M41 36.1c.6-.6 1.7-.4.5.7M51.4 42.4c.9 1.2.3 1.7-.6 1M47.7 39.3c1.9 1 1.9 2.1-1.4 0M50.2 42.4c1.1 1.5.4 1.5-.7.4"/><path d="M25.9 37.3c.5 0 1-.2 1.5-.4.5.2 1 .3 1.5.4-.5.1-.7.7-1.5.8-.5 0-.8-.2-.9-.6-.6 0-.4-.2-.6-.2z" fill="#252225" stroke="#252225" stroke-width=".249" stroke-linecap="round" stroke-linejoin="round" stroke-miterlimit="3.988"/><path class="st23" d="M38.5 28c.6.4.4 1.2-.4.4M39.2 27.4c.5.4.2 1.1-.6.3M41.8 28.5c-.2-.6.7-.8.9.2"/><path class="st21" d="M49.2 39.6c.3-.7.6-1.4.8-2.1 2.9 1.6 6.5 8.4 9 10.8-.7.1-1.5.1-2.7-1-.3.1-.8-.1-1.4-.6-1.8-2.4-4-4.8-5.7-7.1z"/><path class="st23" d="M49.7 38.2c1.6 1.8 3 5 4.2 4.8M54.9 45.1c.9 1.4 2.4 4.2 4.1 3.3M52.3 42.7c.9 2.1 3.9 3.4 2.4 1.3M49.5 39l1.6 2.2M51.4 42.4c.5.4 1.2.6.9-.4"/><path class="st24" d="M32.7 39.9c1 .3 1.7.7-.1.7M31.3 39.7c1 .1 1.6.5-.1.6M30.4 39.2c1 .2 1.5.7-.1.9M31.2 38.4c1.1.2 1.5.7-.1.9M32.1 39c1.1.2 1.6.7-.1.9M33.3 38.9c1.2.5 1.8 1.2-.5.9M32.7 37.7c1.3.4 2 1-.1 1M29.3 39.3c1.1.1 1.6.7 0 .7"/><path class="st30" d="M40.7 50.5c-.1.2.5.5.7.5s.5-.1.7 0c.7-.2.4-1-.2-1.1-.4-.2-.7.8-1.2.6z"/><path class="st26" d="M41.3 49.3c-.3-.1-.5-.6-.6-.6-.1 0-.3.3-.7.4 0 .4-.1.8-.3 1.2-.7 1.3-.6.6-1.8.9-1-.4-1.3-.7-2 0 .6.3 1.2.5 1.9.6-2.1.2-1.8.6-2.1 1.1.5-.4 1.3.3.7.7.9 0 .9-.1 1.3-.6s1.6-.5 2.3-.8h1.4c.4.7.9.4 1.4.5-.6-1.4.4-1.2.7-.8.1-.5-.2-.8-1-.8-.7.3-1.2.4-1.6-.2.3-.7.3-1.1.4-1.6z"/><path class="st31" d="M42.2 49.9c.3.2.4.5.3.9.2-.4.6-.3.7.3.3-.9-.2-1.7-1-1.2zM43.5 51.7c-.3-.5-1.2-.1-.8.7.6.2.9.4.5 1.1.5-.2.8-.8.6-1.3 0-.3-.1-.4-.3-.5zM35.8 52.8c.5-.2 1 0 .8.7-.6.3-.9.7-.5 1.3-.6-.2-1-1-.7-1.6l.4-.4z"/><path class="st21" d="M40.6 43.8c-.1 1.8-.4 3.7-.8 5.5.7 0 .7-.3 1-.6.1.4.4.6.8 1 .5-.2.7-.3.8-.7-.1.4.9.6 1.2.8.2-.2.1-.4.4-.7-.2-1.8-.5-3.5-1-5.2-.8.3-1.6-.1-2.4-.1z"/><path class="st23" d="M40.7 46.8c-.1.8.3 1 .5 1.7.6-.4.6-1 .9-1.7M41.9 43.9c.1.8.5 1 .8 1.5.4-.3.6-.8.5-1.2"/><path class="st23" d="M40.9 43.8c0 .7.1 1.4.5 2.1.4-.3.7-.9.7-1.5"/><path class="st23" d="M42 45c.1 1 .5 1 .9 1.7.4-.4.6-.9.6-1.5M41 45.2c.1 1 0 1.3.5 1.9.7-.6.5-.4.8-1"/><path class="st23" d="M40.5 45.2c-.1.7-.3 1.1.1 1.7.3-.3.5-.6.5-1M42 46.7c0 .7.2 1.4.7 1.8.7-.6.6-1.4.5-2.1M42.5 43.9l.2.9M41.4 43.9V45M42.7 45.3l.2.9M41.7 45.7l-.1.9M41.2 46.5l.1 1.2M42.6 46.3l.1 1.2M40.9 48l-.1.6M42.5 48.2l-.1.7M43.3 47.5c.1.3.1.4.5.6"/><path class="st26" d="M44.3 51.3c.4.4.3-.5.5-.8.1.3.7.9 1.1.9v1.5c.2.7.7 1.2 1.4 1.3.7.1 1.9-.4 2 .4-.9 0-.9.9-.4 1-.9.5-1.1-.4-1.7-.5-.5-.2-1.1-.4-1.6-.5-.3.4-.6.8-.8 1.2.1.7-.1 1.5-.7 1.3-.2-.4-.5-.9-1-.4-.4-.1-.1-1.1.5-1 .6-.4.2-.8.7-1.2-.5.2-.9.4-1.2.7-.4.2-.6 1.2-1.2.7-.1-1-.7-.7-.9-.6 0-.5.2-1 1.2-1.1.5.2 2.1-1 2.2-1.3-.1-.5-.1-1-.1-1.6z"/><path class="st30" d="M46.2 53.3c-.1.2.6.6.8.6.4-.1.6-.2.9-.1.8-.2.5-1.1-.2-1.3-.5-.1-1 1-1.5.8z"/><path class="st31" d="M48 52.7c.3.2.5.6.3 1 .2-.4.7-.4.8.4.4-1-.1-2-1.1-1.4zM41 55.4c.5-.2.8 0 .8.6-.5.2-.8.8-.5 1.4 0 0 0 .1.1.1-.6-.3-.9-1-.6-1.6-.1-.3 0-.4.2-.5zM43.1 56.7c.5-.2.8-.1.9.4-.5.2-.8.8-.5 1.4 0 .1.1.2.1.2-.9-.4-1.2-1.4-.5-2zM49.3 54.6c-.5-.1-.9.6-.3 1 .4-.1.8.2.8.6 0 .1 0 .3-.1.4.5-.5.5-1.3 0-1.8-.1 0-.2-.1-.4-.2z"/><path class="st21" d="M44.1 51.6c.5.1.9-1.4.7-1.3 0 .2.2 1.4 2.1 1.3.4.4.5.4 1.2.5-.1-.4-.2-.8-.2-1.2.2.3.5.5.9.5.4-2.7.4-5.4-.2-8 0-.9-3.5.5-5.7.3.8 2.6 1.2 5.3 1.2 7.9z"/><path class="st23" d="M44.7 44c.2.7.6 1.3 1.2 1.8.5-.7.7-1.5.7-2.4"/><path class="st23" d="M46.6 43.4c.3.9.3 1.4.9 1.9.7-.5.6-1.4.7-2.1M43.2 44.2c.3.8.7 1.6 1.4 2.2.4-.7.6-.8.5-1.6M45.7 45.6c-.1 1.2.5 1.5 1.1 2 .6-.6.8-1.4.6-2.2"/><path class="st23" d="M44.7 46.4c-.2.8.1 1.7.7 2.3.5-.4.7-1.1.6-1.7"/><path class="st23" d="M43.8 46.9c.1 1 0 1 .4 1.6.5-.6.7-1.3.5-2.1M43.9 48.6c-.1 1.2.2 1.2.8 1.7.7-.8 1-1 .8-1.8M46 47.2c-.1.8.4 1.7 1.1 2.1.5-.5.7-1.3.6-2"/><path class="st23" d="M47.5 46.1c-.1.8.4 1.6 1.2 1.8.4-.6.5-1.3.4-2M47.1 49.3c0 .7.4 1.3.9 1.7M47.8 48.1c.2.6 1 2.3 1.3 1.5M47.9 45c.2.6 1 2.1 1.2 1.2M45.7 49c.1 1 .5 2 1.2 2.7M45.6 43.7l.2 1.1M47.5 43.2v1.2M48.5 43.2l.1 1.7M46.5 44.6l.2 1.9M45.2 45.3l.2 1.8M46.8 47.6l.2 1M48.2 45.7l.3 1.3M44.2 44.2l.3 1M43.9 45.6l.2 1.4M48.6 47.9l.1 1.1M44.7 47.7v1.5"/><path class="st0" d="M26.7 37.4h.2c.1.5.6.5.7 0h.3c0 .6-1.1.8-1.2 0z"/></svg>